<?xml version="1.0" encoding="utf-8"?>
<!-- Generator: Adobe Illustrator 25.0.1, SVG Export Plug-In . SVG Version: 6.00 Build 0)  -->
<svg version="1.1" id="Layer_1" xmlns="http://www.w3.org/2000/svg" xmlns:xlink="http://www.w3.org/1999/xlink" x="0px" y="0px"
	 width="100%" viewBox="0 0 858 195" style="enable-background:new 0 0 858 195;" xml:space="preserve">
<style type="text/css">
	.backgroundDistort{fill:white}
</style>
<g class="backgroundDistort">
	<polygon points="-0.5,199.5 -0.5,106.85 51.09,112.06 85.05,96.33 155.04,114.7 192.07,98.15 317.07,116 351.06,101.57 
		449.99,118.61 534.49,106.8 597.14,112.06 632.09,86.9 698.87,106.82 780.71,79.62 791.69,106.84 832.98,102.34 857.5,106.72 
		857.5,199.5 	"/>
	<path d="M780.42,80.25l10.66,26.43l0.28,0.7l0.75-0.08l40.84-4.45l24.03,4.29V199H0v-91.6l50.9,5.14l0.27,0.03l0.25-0.12
		l33.67-15.6l69.65,18.28l0.34,0.09l0.32-0.14l36.74-16.42l124.71,17.81l0.28,0.04l0.26-0.11l33.73-14.32l98.71,17.01l0.15,0.03
		l0.15-0.02l84.37-11.8l62.41,5.24l0.37,0.03l0.3-0.22l34.6-24.91l66.39,19.81l0.3,0.09l0.3-0.1L780.42,80.25 M781,79l-82.14,27.3
		L632,86.35l-35,25.2l-62.52-5.25L450,118.11l-99-17.06l-34,14.44L192,97.64l-37,16.54L85,95.8l-34,15.75l-52-5.25V200h859v-93.7
		l-25-4.46l-40.99,4.46L781,79L781,79z"/>
</g>

</svg>
