<svg version="1.1" id="Layer_1" xmlns="http://www.w3.org/2000/svg" x="0px" y="0px"
 viewBox="0 0 386 787">
<path className="flask0" d="M250.89,395.25c-15.26,1.45-32.14,2.25-49.89,2.25c-10.92,0-21.52-0.3-31.6-0.87L250.89,395.25z"/>
<path className="flask0" d="M246.44,396.63c-0.24,1.1-0.46,2.21-0.69,3.32c-0.22,1.11-0.45,2.23-0.66,3.36c-0.16,0.8-0.31,1.61-0.46,2.42
	c-0.15,0.81-0.3,1.62-0.44,2.44c-0.1,0.56-0.2,1.12-0.3,1.68c-0.15,0.85-0.3,1.71-0.44,2.57c-0.65,3.85-1.25,7.77-1.8,11.75
	c-0.09,0.67-0.18,1.34-0.27,2.02c-0.21,1.58-0.42,3.17-0.61,4.77c-0.11,0.87-0.21,1.74-0.31,2.62c-0.06,0.54-0.12,1.07-0.18,1.61
	c-0.09,0.79-0.18,1.59-0.26,2.38c-0.1,0.97-0.2,1.93-0.3,2.9c-0.16,1.55-0.31,3.12-0.44,4.69c-0.09,0.87-0.16,1.75-0.23,2.64
	c-0.09,1.02-0.18,2.05-0.25,3.09c-0.11,1.26-0.2,2.52-0.28,3.8c-0.03,0.26-0.04,0.52-0.05,0.78c-0.12,1.55-0.21,3.11-0.3,4.68
	c-0.02,0.35-0.04,0.7-0.06,1.05c-0.1,1.66-0.18,3.33-0.25,5.01c-0.09,1.73-0.16,3.47-0.21,5.22c-0.03,0.66-0.05,1.34-0.07,2.01
	c-0.04,1.28-0.08,2.56-0.1,3.84c-0.05,1.81-0.08,3.63-0.1,5.45c-0.03,2.08-0.04,4.17-0.04,6.27c0,3.98,0.05,7.93,0.14,11.85
	c0.08,3.43,0.19,6.83,0.34,10.21c0.16,3.68,0.36,7.34,0.6,10.95c0.14,2.08,0.29,4.14,0.46,6.19c0.2,2.56,0.42,5.11,0.67,7.63
	c0.1,1.06,0.2,2.1,0.31,3.15c0.04,0.4,0.08,0.79,0.13,1.18c0.1,0.95,0.2,1.9,0.31,2.84c0.29,2.62,0.61,5.22,0.94,7.79
	c0.25,1.9,0.51,3.79,0.78,5.67c0.19,1.3,0.38,2.6,0.58,3.88c0.14,0.9,0.28,1.79,0.42,2.67c0.33,2.02,0.66,4.01,1.01,5.99
	c0.22,1.21,0.43,2.41,0.66,3.61c0.2,1.05,0.39,2.09,0.6,3.13c0.4,2.08,0.82,4.13,1.26,6.16c0.22,1.02,0.44,2.03,0.66,3.03
	c0.25,1.14,0.51,2.26,0.77,3.38c0.39,1.67,0.79,3.31,1.2,4.94c0.29,1.16,0.58,2.3,0.88,3.43c0.25,0.95,0.5,1.9,0.76,2.84
	c2.25,8.23,4.74,15.96,7.45,23.1c0.3,0.82,0.61,1.62,0.93,2.42c0.31,0.8,0.62,1.59,0.95,2.37c0.31,0.79,0.63,1.56,0.96,2.33
	c0.97,2.3,1.97,4.53,2.99,6.69c1.01,2.16,2.06,4.24,3.13,6.25c0.7,1.34,1.42,2.65,2.16,3.92c2.54,4.45,5.2,8.48,7.98,12.04
	c0.38,0.51,0.78,1.01,1.19,1.5c0.38,0.49,0.79,0.97,1.2,1.44c0.39,0.47,0.79,0.93,1.21,1.38c0.4,0.45,0.81,0.9,1.23,1.33
	c0.01,0.01,0.03,0.02,0.04,0.04c0.13,0.15,0.28,0.31,0.43,0.46c0.05,0.05,0.09,0.1,0.14,0.14c0.01,0.01,0.02,0.02,0.02,0.02
	c0.12,0.13,0.25,0.26,0.38,0.39"/>
<line className="flask1" x1="286.26" y1="665.37" x2="286.27" y2="665.41"/>
<path className="flask0" d="M248.73,395.25c-5.97,27.61-9.39,59.62-9.39,93.75c0,77.6,17.66,144.24,42.89,173.15"/>
<path className="flask2" d="M279.47,662.21l2.76-0.06C257,633.24,239.34,566.6,239.34,489c0-31.2,2.86-60.62,7.91-86.53
	c0.47-2.44,0.97-4.85,1.48-7.22c-15.26,1.45-32.14,2.25-49.89,2.25c-10.92,0-21.52-0.3-31.6-0.87c0.47,2.2,0.92,4.43,1.35,6.68
	c4.96,25.71,7.75,54.83,7.75,85.69c0,79.59-18.57,147.64-44.86,175.29c-0.15,0.17-0.31,0.33-0.47,0.5c-0.05,0.06-0.1,0.11-0.16,0.16
	c-0.12,0.13-0.25,0.26-0.38,0.39h0.06"/>
<path className="flask1" d="M283.15,664.87c-0.15-0.03-0.31-0.05-0.46-0.08h-0.01c0,0,0,0-0.01,0c0.05,0.05,0.09,0.1,0.14,0.14
	c0.01,0.01,0.02,0.02,0.02,0.02c0.12,0.13,0.25,0.26,0.38,0.39"/>
<ellipse className="flask3" cx="209" cy="395" rx="48.5" ry="13.5"/>
<ellipse className="flask4" cx="207.84" cy="668.5" rx="77.5" ry="18"/>
<circle className="flask5" cx="198.5" cy="467.5" r="10"/>
<circle className="flask6" cx="220.5" cy="305.5" r="10"/>
<circle className="flask7" cx="210.5" cy="580.5" r="10"/>
<circle className="flask8" cx="198.5" cy="356.5" r="10"/>
<circle className="flask8" cx="215.34" cy="622.5" r="10"/>
<circle className="flask8" cx="210.5" cy="436.5" r="10"/>
<circle className="flask8" cx="210.5" cy="532.5" r="10"/>
<circle className="flask9" cx="284.5" cy="305.5" r="10"/>
<circle className="flask8" cx="178.5" cy="295.5" r="10"/>
<circle className="flask10" cx="220.5" cy="219.5" r="10"/>
<circle className="flask11" cx="118.5" cy="285.5" r="10"/>
<circle className="flask12" cx="208.5" cy="153.5" r="10"/>
<circle className="flask13" cx="169.5" cy="229.5" r="10"/>
<circle className="flask14" cx="152.5" cy="173.5" r="10"/>
<circle className="flask15" cx="304.5" cy="209.5" r="10"/>
<circle className="flask7" cx="-60.17" cy="-255.11" r="10"/>
</svg>
