<?xml version="1.0" encoding="utf-8"?>
<!-- Generator: Adobe Illustrator 25.0.1, SVG Export Plug-In . SVG Version: 6.00 Build 0)  -->
<svg version="1.1" id="Layer_1" xmlns="http://www.w3.org/2000/svg" xmlns:xlink="http://www.w3.org/1999/xlink" x="0px" y="0px"
	 viewBox="0 0 1222 709" style="enable-background:new 0 0 1222 709;" xml:space="preserve">
<style type="text/css">
	.st0{fill:#999999;}
	.st1{fill:#FFFFFF;}
	.st2{fill:#CCCCCC;}
	.st3{fill:#FCEE21;}
	.st4{fill:#FF0000;}
	.st5{fill:#FFFF00;}
	.st6{font-family:'MyriadPro-Regular';}
	.st7{font-size:24px;}
	.st8{letter-spacing:-1;}
	.st9{fill:none;}
</style>
<g>
	<path class="st0" d="M230,699.5c-58.63,0-113.75-22.83-155.21-64.29S10.5,538.63,10.5,480c0-58.63,22.83-113.75,64.29-155.21
		S171.37,260.5,230,260.5c58.63,0,113.75,22.83,155.21,64.29S449.5,421.37,449.5,480c0,58.63-22.83,113.75-64.29,155.21
		S288.63,699.5,230,699.5z"/>
	<path d="M230,261c29.57,0,58.25,5.79,85.24,17.21c26.08,11.03,49.5,26.82,69.61,46.93c20.11,20.11,35.9,43.53,46.93,69.61
		c11.42,27,17.21,55.68,17.21,85.24c0,29.57-5.79,58.25-17.21,85.24c-11.03,26.08-26.82,49.5-46.93,69.61
		c-20.11,20.11-43.53,35.9-69.61,46.93C288.25,693.21,259.57,699,230,699c-29.57,0-58.25-5.79-85.24-17.21
		c-26.08-11.03-49.5-26.82-69.61-46.93s-35.9-43.53-46.93-69.61C16.79,538.25,11,509.57,11,480c0-29.57,5.79-58.25,17.21-85.24
		c11.03-26.08,26.82-49.5,46.93-69.61s43.53-35.9,69.61-46.93C171.75,266.79,200.43,261,230,261 M230,260c-121.5,0-220,98.5-220,220
		s98.5,220,220,220s220-98.5,220-220S351.5,260,230,260L230,260z"/>
</g>
<g>
	<circle class="st1" cx="230" cy="480" r="88.5"/>
	<path d="M230,392c48.52,0,88,39.48,88,88s-39.48,88-88,88s-88-39.48-88-88S181.48,392,230,392 M230,391c-49.15,0-89,39.85-89,89
		s39.85,89,89,89s89-39.85,89-89S279.15,391,230,391L230,391z"/>
</g>
<g>
	<circle class="st2" cx="229.5" cy="479.5" r="200"/>
	<path d="M229.5,280c26.93,0,53.06,5.27,77.65,15.68c23.76,10.05,45.09,24.43,63.41,42.75c18.32,18.32,32.71,39.66,42.75,63.41
		c10.4,24.59,15.68,50.72,15.68,77.65s-5.27,53.06-15.68,77.65c-10.05,23.76-24.43,45.09-42.75,63.41
		c-18.32,18.32-39.66,32.71-63.41,42.75C282.56,673.73,256.43,679,229.5,679c-26.93,0-53.06-5.27-77.65-15.68
		c-23.76-10.05-45.09-24.43-63.41-42.75c-18.32-18.32-32.71-39.66-42.75-63.41C35.27,532.56,30,506.43,30,479.5
		s5.27-53.06,15.68-77.65c10.05-23.76,24.43-45.09,42.75-63.41c18.32-18.32,39.66-32.71,63.41-42.75
		C176.44,285.27,202.57,280,229.5,280 M229.5,279C118.77,279,29,368.77,29,479.5S118.77,680,229.5,680S430,590.23,430,479.5
		S340.23,279,229.5,279L229.5,279z"/>
</g>
<g>
	<path d="M229.5,427c28.95,0,52.5,23.55,52.5,52.5S258.45,532,229.5,532S177,508.45,177,479.5S200.55,427,229.5,427 M229.5,426
		c-29.55,0-53.5,23.95-53.5,53.5s23.95,53.5,53.5,53.5s53.5-23.95,53.5-53.5S259.05,426,229.5,426L229.5,426z"/>
</g>
<g>
	<circle cx="88.5" cy="480.5" r="52"/>
	<path d="M88.5,429c28.4,0,51.5,23.1,51.5,51.5c0,28.4-23.1,51.5-51.5,51.5S37,508.9,37,480.5C37,452.1,60.1,429,88.5,429 M88.5,428
		C59.51,428,36,451.51,36,480.5c0,28.99,23.51,52.5,52.5,52.5s52.5-23.51,52.5-52.5C141,451.51,117.49,428,88.5,428L88.5,428z"/>
</g>
<g>
	<circle cx="155.5" cy="602.5" r="52"/>
	<path d="M155.5,551c28.4,0,51.5,23.1,51.5,51.5S183.9,654,155.5,654S104,630.9,104,602.5S127.1,551,155.5,551 M155.5,550
		c-28.99,0-52.5,23.51-52.5,52.5s23.51,52.5,52.5,52.5s52.5-23.51,52.5-52.5S184.49,550,155.5,550L155.5,550z"/>
</g>
<g>
	<circle cx="318.5" cy="592.5" r="52"/>
	<path d="M318.5,541c28.4,0,51.5,23.1,51.5,51.5S346.9,644,318.5,644S267,620.9,267,592.5S290.1,541,318.5,541 M318.5,540
		c-28.99,0-52.5,23.51-52.5,52.5s23.51,52.5,52.5,52.5c28.99,0,52.5-23.51,52.5-52.5S347.49,540,318.5,540L318.5,540z"/>
</g>
<g>
	<circle cx="371.5" cy="471.5" r="52"/>
	<path d="M371.5,420c28.4,0,51.5,23.1,51.5,51.5c0,28.4-23.1,51.5-51.5,51.5S320,499.9,320,471.5C320,443.1,343.1,420,371.5,420
		 M371.5,419c-28.99,0-52.5,23.51-52.5,52.5c0,28.99,23.51,52.5,52.5,52.5s52.5-23.51,52.5-52.5C424,442.51,400.49,419,371.5,419
		L371.5,419z"/>
</g>
<g>
	<circle cx="305.5" cy="356.5" r="52"/>
	<path d="M305.5,305c28.4,0,51.5,23.1,51.5,51.5S333.9,408,305.5,408S254,384.9,254,356.5S277.1,305,305.5,305 M305.5,304
		c-28.99,0-52.5,23.51-52.5,52.5s23.51,52.5,52.5,52.5c28.99,0,52.5-23.51,52.5-52.5S334.49,304,305.5,304L305.5,304z"/>
</g>
<g>
	<circle cx="155.5" cy="356.5" r="52"/>
	<path d="M155.5,305c28.4,0,51.5,23.1,51.5,51.5S183.9,408,155.5,408S104,384.9,104,356.5S127.1,305,155.5,305 M155.5,304
		c-28.99,0-52.5,23.51-52.5,52.5s23.51,52.5,52.5,52.5s52.5-23.51,52.5-52.5S184.49,304,155.5,304L155.5,304z"/>
</g>
<g>
	<circle class="st3" cx="155.5" cy="356.5" r="52"/>
	<path d="M155.5,305c28.4,0,51.5,23.1,51.5,51.5S183.9,408,155.5,408S104,384.9,104,356.5S127.1,305,155.5,305 M155.5,304
		c-28.99,0-52.5,23.51-52.5,52.5s23.51,52.5,52.5,52.5s52.5-23.51,52.5-52.5S184.49,304,155.5,304L155.5,304z"/>
</g>
<g>
	<path class="st4" d="M155,340c8.82,0,16,7.18,16,16s-7.18,16-16,16s-16-7.18-16-16S146.18,340,155,340 M155,336
		c-11.05,0-20,8.95-20,20s8.95,20,20,20s20-8.95,20-20S166.05,336,155,336L155,336z"/>
</g>
<g>
	<circle class="st5" cx="154.5" cy="602.5" r="52"/>
	<path d="M154.5,551c28.4,0,51.5,23.1,51.5,51.5S182.9,654,154.5,654S103,630.9,103,602.5S126.1,551,154.5,551 M154.5,550
		c-28.99,0-52.5,23.51-52.5,52.5s23.51,52.5,52.5,52.5s52.5-23.51,52.5-52.5S183.49,550,154.5,550L154.5,550z"/>
</g>
<g>
	<path class="st4" d="M154,586c8.82,0,16,7.18,16,16s-7.18,16-16,16s-16-7.18-16-16S145.18,586,154,586 M154,582
		c-11.05,0-20,8.95-20,20s8.95,20,20,20s20-8.95,20-20S165.05,582,154,582L154,582z"/>
</g>
<g>
	<circle class="st5" cx="88.5" cy="480.5" r="52"/>
	<path d="M88.5,429c28.4,0,51.5,23.1,51.5,51.5c0,28.4-23.1,51.5-51.5,51.5S37,508.9,37,480.5C37,452.1,60.1,429,88.5,429 M88.5,428
		C59.51,428,36,451.51,36,480.5c0,28.99,23.51,52.5,52.5,52.5s52.5-23.51,52.5-52.5C141,451.51,117.49,428,88.5,428L88.5,428z"/>
</g>
<g>
	<path class="st4" d="M88,464c8.82,0,16,7.18,16,16c0,8.82-7.18,16-16,16s-16-7.18-16-16C72,471.18,79.18,464,88,464 M88,460
		c-11.05,0-20,8.95-20,20c0,11.05,8.95,20,20,20s20-8.95,20-20C108,468.95,99.05,460,88,460L88,460z"/>
</g>
<g>
	<circle class="st5" cx="371.5" cy="470.5" r="52"/>
	<path d="M371.5,419c28.4,0,51.5,23.1,51.5,51.5c0,28.4-23.1,51.5-51.5,51.5S320,498.9,320,470.5C320,442.1,343.1,419,371.5,419
		 M371.5,418c-28.99,0-52.5,23.51-52.5,52.5c0,28.99,23.51,52.5,52.5,52.5s52.5-23.51,52.5-52.5C424,441.51,400.49,418,371.5,418
		L371.5,418z"/>
</g>
<g>
	<path class="st4" d="M371,454c8.82,0,16,7.18,16,16s-7.18,16-16,16s-16-7.18-16-16S362.18,454,371,454 M371,450
		c-11.05,0-20,8.95-20,20s8.95,20,20,20s20-8.95,20-20S382.05,450,371,450L371,450z"/>
</g>
<g>
	<circle class="st5" cx="305.5" cy="357.5" r="52"/>
	<path d="M305.5,306c28.4,0,51.5,23.1,51.5,51.5S333.9,409,305.5,409S254,385.9,254,357.5S277.1,306,305.5,306 M305.5,305
		c-28.99,0-52.5,23.51-52.5,52.5s23.51,52.5,52.5,52.5c28.99,0,52.5-23.51,52.5-52.5S334.49,305,305.5,305L305.5,305z"/>
</g>
<g>
	<path class="st4" d="M305,341c8.82,0,16,7.18,16,16s-7.18,16-16,16s-16-7.18-16-16S296.18,341,305,341 M305,337
		c-11.05,0-20,8.95-20,20s8.95,20,20,20s20-8.95,20-20S316.05,337,305,337L305,337z"/>
</g>
<g>
	<circle class="st5" cx="318.5" cy="592.5" r="52"/>
	<path d="M318.5,541c28.4,0,51.5,23.1,51.5,51.5S346.9,644,318.5,644S267,620.9,267,592.5S290.1,541,318.5,541 M318.5,540
		c-28.99,0-52.5,23.51-52.5,52.5s23.51,52.5,52.5,52.5c28.99,0,52.5-23.51,52.5-52.5S347.49,540,318.5,540L318.5,540z"/>
</g>
<g>
	<path class="st4" d="M319,576c8.82,0,16,7.18,16,16s-7.18,16-16,16c-8.82,0-16-7.18-16-16S310.18,576,319,576 M319,572
		c-11.05,0-20,8.95-20,20s8.95,20,20,20c11.05,0,20-8.95,20-20S330.05,572,319,572L319,572z"/>
</g>
<g>
	<g>
		<path d="M125.2,574.87c-1.77,0.96-3.5,2-5.19,3.15c0.82,1.21,1.63,2.42,2.45,3.62c1.75-1.18,3.54-2.26,5.38-3.22
			c0.2,0.39,0.41,0.78,0.61,1.16c-2.33,1.22-4.59,2.63-6.77,4.21c-2.38-3.27-4.76-6.55-7.13-9.82c2.55-1.85,5.2-3.5,7.92-4.96
			c0.21,0.39,0.41,0.77,0.62,1.16c-2.03,1.08-4.02,2.28-5.96,3.59c0.72,1.06,1.43,2.12,2.15,3.18c1.72-1.17,3.49-2.24,5.3-3.21
			C124.79,574.11,124.99,574.49,125.2,574.87z"/>
		<path d="M127.66,570.27c0.76,0.34,1.51,0.69,2.24,1.06c0.57,0.29,1.06,0.57,1.58,0.89c0.02-0.01,0.04-0.02,0.06-0.03
			c0.14-0.62,0.32-1.17,0.5-1.74c0.27-0.76,0.56-1.53,0.86-2.29c0.71-0.25,1.42-0.49,2.14-0.71c-0.83,1.73-1.56,3.47-2.2,5.22
			c1.71,0.95,3.35,1.98,4.9,3.07c-0.65,0.2-1.3,0.42-1.95,0.64c-0.68-0.46-1.37-0.9-2.07-1.33c-0.56-0.33-1.06-0.65-1.6-1
			c-0.01,0.01-0.03,0.01-0.04,0.02c-0.13,0.62-0.29,1.19-0.44,1.82c-0.2,0.8-0.39,1.6-0.55,2.39c-0.61,0.28-1.21,0.57-1.81,0.87
			c0.4-1.86,0.89-3.73,1.49-5.59c-1.68-0.83-3.43-1.59-5.24-2.28C126.24,570.93,126.94,570.6,127.66,570.27z"/>
		<path d="M137.84,569.59c-0.3-1.08-0.58-1.93-0.85-2.72c0.6-0.17,1.2-0.32,1.81-0.47c0.15,0.48,0.3,0.95,0.45,1.43
			c0.02,0,0.03-0.01,0.04-0.01c0.55-1.23,1.74-2.15,3.58-2.48c2.75-0.49,5,1.11,5.23,3.74c0.27,3.12-1.7,4.86-3.94,5.28
			c-1.27,0.23-2.49-0.01-3.28-0.7c-0.01,0-0.03,0.01-0.04,0.01c0.37,1.53,0.74,3.07,1.11,4.6c-0.54,0.13-1.07,0.27-1.61,0.42
			C139.52,575.66,138.68,572.63,137.84,569.59z M140.29,571.36c0.05,0.23,0.15,0.43,0.24,0.61c0.6,0.99,1.83,1.47,3.11,1.23
			c1.88-0.35,2.81-1.83,2.56-3.82c-0.22-1.73-1.58-3.08-3.72-2.68c-1.37,0.26-2.47,1.31-2.56,2.55c-0.02,0.21-0.03,0.45,0.02,0.66
			C140.06,570.39,140.17,570.88,140.29,571.36z"/>
		<path d="M151.62,569.25c0.15,2.14,1.75,2.95,3.55,2.99c1.3,0.03,2.09-0.12,2.8-0.33c0.08,0.38,0.15,0.77,0.23,1.15
			c-0.65,0.21-1.74,0.42-3.29,0.39c-2.98-0.04-4.9-1.61-5.12-4.25c-0.23-2.61,1.64-4.88,5-4.85c3.76,0.08,4.51,2.74,4.36,4.32
			c-0.03,0.32-0.09,0.57-0.13,0.73C156.55,569.2,154.08,569.15,151.62,569.25z M157.29,568.15c0.08-1-0.38-2.63-2.68-2.66
			c-2.07-0.01-2.91,1.53-3.02,2.62C153.49,568.04,155.39,568.05,157.29,568.15z"/>
		<path d="M161.72,567.39c0.11-0.89,0.18-1.63,0.2-2.35c0.61,0.07,1.21,0.16,1.82,0.25c-0.03,0.48-0.07,0.96-0.1,1.44
			c0.02,0,0.03,0,0.05,0.01c0.67-0.73,2.11-1.33,3.97-0.93c1.56,0.32,3.76,1.67,2.92,4.55c-0.47,1.67-0.95,3.34-1.42,5.01
			c-0.58-0.16-1.16-0.32-1.74-0.46c0.41-1.62,0.81-3.25,1.22-4.87c0.34-1.36-0.02-2.68-1.91-3.07c-1.32-0.27-2.48,0.29-2.94,1.11
			c-0.12,0.18-0.21,0.44-0.25,0.71c-0.27,1.73-0.55,3.45-0.82,5.18c-0.59-0.09-1.18-0.18-1.77-0.25
			C161.19,571.59,161.46,569.49,161.72,567.39z"/>
		<path d="M172.22,574.63c0.42,0.47,1.22,1.09,2.08,1.42c1.25,0.48,2.05,0.22,2.34-0.45c0.3-0.69-0.03-1.3-1.21-2.22
			c-1.58-1.21-2.19-2.3-1.86-3.3c0.43-1.33,2.23-1.98,4.55-1.04c1.09,0.44,1.93,1.09,2.4,1.62c-0.32,0.28-0.64,0.55-0.95,0.83
			c-0.32-0.38-0.96-0.98-1.94-1.37c-1.14-0.46-1.96-0.18-2.18,0.43c-0.25,0.68,0.26,1.2,1.41,2.14c1.53,1.25,2.06,2.36,1.51,3.53
			c-0.66,1.39-2.35,1.76-4.53,0.91c-1.01-0.39-1.88-0.94-2.44-1.5C171.67,575.29,171.94,574.96,172.22,574.63z"/>
		<path d="M182.28,576.36c-0.97,1.91,0.03,3.45,1.62,4.45c1.14,0.72,1.93,1.02,2.66,1.23c-0.13,0.37-0.26,0.74-0.39,1.11
			c-0.69-0.18-1.77-0.58-3.14-1.44c-2.63-1.62-3.51-3.97-2.35-6.35c1.14-2.35,3.95-3.33,6.92-1.52c3.3,2.08,2.61,4.79,1.67,6.05
			c-0.19,0.26-0.38,0.44-0.49,0.56C186.69,578.94,184.51,577.57,182.28,576.36z M187.89,578.45c0.59-0.81,1.01-2.46-1.02-3.72
			c-1.84-1.11-3.37-0.24-4.02,0.65C184.56,576.31,186.25,577.33,187.89,578.45z"/>
	</g>
</g>
<g>
	<g>
		<path d="M133.79,628.93c-1.22-0.11-2.43-0.22-3.64-0.34c0-0.44,0-0.89,0-1.33c2.98,0.1,5.97,0.18,8.96,0.24
			c-0.02,0.61-0.04,1.22-0.05,1.83c-1.23-0.08-2.46-0.17-3.69-0.27c-0.11,4.46-0.22,8.92-0.34,13.38c-0.5-0.27-1-0.55-1.49-0.84
			C133.62,637.38,133.7,633.15,133.79,628.93z"/>
		<path d="M139.34,636.05c0.04-1.43,0.06-2.66,0.04-3.79c0.46,0.06,0.92,0.12,1.38,0.18c-0.01,0.82-0.01,1.64-0.02,2.46
			c0.02,0,0.05,0.01,0.07,0.01c0.44-1.6,1.43-2.58,2.5-2.48c0.18,0.02,0.31,0.06,0.45,0.12c-0.02,0.75-0.04,1.51-0.06,2.26
			c-0.16-0.07-0.32-0.12-0.54-0.15c-1.12-0.14-1.95,0.96-2.22,2.62c-0.04,0.3-0.09,0.66-0.1,1.05c-0.07,2.23-0.13,4.46-0.2,6.69
			c-0.52-0.2-1.04-0.4-1.55-0.62C139.17,641.61,139.25,638.83,139.34,636.05z"/>
		<path d="M149.91,647.45c-0.03-0.6-0.07-1.21-0.1-1.81c-0.02,0-0.04-0.01-0.06-0.01c-0.52,1.04-1.52,1.87-2.8,1.57
			c-1.82-0.43-2.69-2.63-2.64-4.54c0.09-3.21,2.02-4.62,5.46-4.28c0-0.1,0-0.2,0-0.29c0.02-1.18-0.15-3.29-1.96-3.43
			c-0.82-0.07-1.69,0.25-2.32,0.79c-0.11-0.56-0.22-1.11-0.32-1.66c0.74-0.65,1.81-1.05,2.92-0.99c2.69,0.15,3.31,3.15,3.28,6.04
			c-0.02,1.79-0.05,3.57-0.07,5.36c-0.02,1.24,0.01,2.46,0.11,3.45C150.91,647.6,150.41,647.53,149.91,647.45z M149.78,640.18
			c-1.78-0.24-3.78-0.07-3.85,2.56c-0.04,1.6,0.64,2.53,1.48,2.7c1.17,0.23,1.94-0.83,2.22-1.99c0.06-0.26,0.1-0.54,0.11-0.81
			C149.75,641.82,149.77,641,149.78,640.18z"/>
		<path d="M160.46,647.33c-0.43,0.39-1.39,0.94-2.63,0.96c-2.78,0.04-4.55-3.13-4.5-7.53c0.05-4.45,1.94-7.62,4.82-7.64
			c0.95-0.01,1.79,0.37,2.24,0.71c-0.12,0.68-0.23,1.36-0.35,2.05c-0.39-0.35-1-0.66-1.88-0.65c-2.04,0.02-3.15,2.45-3.17,5.49
			c-0.02,3.36,1.33,5.51,3.14,5.47c0.94-0.02,1.56-0.45,2.03-0.8C160.26,646.03,160.36,646.68,160.46,647.33z"/>
		<path d="M163.92,639.77c0.01,0,0.02,0,0.04,0c0.21-0.52,0.52-1.17,0.77-1.69c0.84-1.71,1.68-3.4,2.5-5.04
			c0.64-0.05,1.28-0.1,1.92-0.16c-1.08,1.94-2.18,3.96-3.29,6.01c1.36,2.59,2.73,5.03,4.1,7.27c-0.65,0.19-1.31,0.37-1.97,0.53
			c-1.08-1.94-2.16-3.99-3.23-6.13c-0.27,0.52-0.54,1.04-0.81,1.56c0.03,1.78,0.06,3.56,0.08,5.35c-0.54,0.08-1.09,0.16-1.64,0.22
			c-0.09-7.02-0.17-14.05-0.26-21.07c0.52,0,1.04,0,1.57,0C163.79,631,163.85,635.38,163.92,639.77z"/>
		<path d="M171.84,639.5c0.12,3.18,1.54,4.06,3.11,3.43c1.12-0.44,1.78-1,2.34-1.57c0.1,0.46,0.2,0.91,0.3,1.36
			c-0.53,0.58-1.44,1.42-2.81,2.01c-2.65,1.15-4.37-1.09-4.47-5.11c-0.11-4.03,1.37-7.31,3.9-7.57c2.84-0.29,3.66,2.73,3.72,4.75
			c0.01,0.41-0.02,0.75-0.03,0.96C175.91,638.44,173.89,639.02,171.84,639.5z M176.41,636.72c-0.02-1.34-0.5-3.33-2.28-3.07
			c-1.6,0.23-2.24,2.5-2.32,4.16C173.36,637.5,174.89,637.14,176.41,636.72z"/>
		<path d="M179.79,634.75c-0.03-1.23-0.07-2.28-0.14-3.25c0.45-0.08,0.91-0.16,1.36-0.24c0.03,0.65,0.06,1.29,0.09,1.94
			c0.02-0.01,0.05-0.01,0.07-0.02c0.36-1.44,1.28-2.42,2.31-2.61c0.18-0.03,0.3-0.04,0.44-0.03c0,0.5,0,1,0,1.49
			c-0.16,0.01-0.31,0.03-0.52,0.09c-1.07,0.28-1.83,1.4-2.01,2.83c-0.03,0.26-0.06,0.55-0.06,0.86c0.03,1.75,0.06,3.5,0.09,5.25
			c-0.48,0.3-0.97,0.59-1.46,0.87C179.9,639.54,179.85,637.14,179.79,634.75z"/>
	</g>
</g>
<g>
	<g>
		<path d="M52.34,451c0.85-0.77,2.02-1.72,3.62-2.71c1.98-1.22,3.65-1.68,4.87-1.57c1.13,0.08,2.01,0.64,2.47,1.62
			c0.47,1,0.43,1.96-0.01,2.89c-0.59,1.28-1.91,2.49-3.61,3.55c-0.52,0.32-1,0.62-1.45,0.81c0.9,1.35,1.8,2.7,2.7,4.04
			c-0.52,0.35-1.03,0.7-1.54,1.07C57.04,457.47,54.69,454.24,52.34,451z M57.52,454.52c0.43-0.18,0.94-0.47,1.53-0.84
			c2.14-1.32,3.09-2.81,2.33-4.31c-0.72-1.42-2.56-1.38-4.73-0.05c-0.85,0.53-1.47,1-1.76,1.28
			C55.78,451.91,56.65,453.22,57.52,454.52z"/>
		<path d="M66.57,449.84c-0.4-0.95-0.76-1.75-1.14-2.47c0.59-0.25,1.18-0.48,1.78-0.71c0.23,0.52,0.45,1.05,0.67,1.57
			c0.03-0.01,0.06-0.02,0.09-0.03c0.08-1.28,1.07-2.43,2.47-2.86c0.24-0.07,0.41-0.11,0.61-0.13c0.14,0.48,0.28,0.95,0.43,1.43
			c-0.22,0.03-0.43,0.07-0.71,0.16c-1.43,0.45-2.15,1.62-1.99,2.83c0.03,0.22,0.08,0.47,0.17,0.72c0.54,1.45,1.08,2.9,1.62,4.35
			c-0.57,0.21-1.13,0.43-1.69,0.67C68.11,453.52,67.34,451.68,66.57,449.84z"/>
		<path d="M83.79,447.42c0.14,3.22-2.3,4.77-4.63,5.18c-2.62,0.44-5.09-0.64-5.87-3.28c-0.83-2.79,1.25-5.19,4.54-5.73
			C81.25,443.03,83.67,444.77,83.79,447.42z M75.23,448.77c0.46,1.86,2.04,2.94,3.81,2.65c1.73-0.29,2.91-1.82,2.73-3.78
			c-0.13-1.46-1.3-3.27-3.79-2.87C75.49,445.19,74.84,447.17,75.23,448.77z"/>
		<path d="M84.08,454.36c0.78-0.1,1.45-0.32,1.86-0.75c0.46-0.51,0.64-1.2,0.63-3.29c-0.02-2.43-0.04-4.86-0.06-7.29
			c0.72-0.01,1.43,0,2.15,0.02c-0.08,2.63-0.16,5.27-0.24,7.9c-0.05,1.69-0.4,2.77-1.23,3.56c-0.76,0.7-1.96,1.01-2.85,1.07
			C84.25,455.18,84.17,454.77,84.08,454.36z M88.99,440.62c0,0.52-0.54,0.95-1.41,0.94c-0.83-0.01-1.36-0.45-1.37-0.97
			c-0.01-0.56,0.58-1,1.44-0.99C88.48,439.61,89.01,440.07,88.99,440.62z"/>
		<path d="M92.82,448.02c-0.18,2.14,1.3,3.19,3.12,3.54c1.31,0.25,2.13,0.25,2.88,0.18c0.01,0.39,0.02,0.79,0.03,1.18
			c-0.69,0.08-1.82,0.09-3.38-0.2c-2.98-0.54-4.68-2.38-4.51-5.02c0.16-2.61,2.44-4.58,5.9-3.97c3.87,0.74,4.16,3.54,3.73,5.05
			c-0.09,0.31-0.2,0.54-0.26,0.69C97.86,448.8,95.35,448.31,92.82,448.02z M98.79,447.91c0.26-0.96,0.07-2.66-2.3-3.1
			c-2.13-0.37-3.24,1.02-3.51,2.09C94.93,447.12,96.87,447.46,98.79,447.91z"/>
		<path d="M108.31,456.54c-0.54-0.03-1.62-0.25-2.87-0.79c-2.77-1.19-4.14-3.42-3.39-5.99c0.74-2.56,3.75-3.76,7.42-2.16
			c1.19,0.52,2.13,1.25,2.56,1.71c-0.33,0.29-0.66,0.58-0.99,0.87c-0.36-0.42-1-0.96-2.08-1.43c-2.51-1.1-4.39-0.14-4.97,1.57
			c-0.65,1.91,0.39,3.57,2.26,4.4c0.98,0.43,1.72,0.54,2.3,0.6C108.48,455.73,108.4,456.13,108.31,456.54z"/>
		<path d="M118.32,449.73c-0.45,0.7-0.9,1.4-1.35,2.11c0.9,0.58,1.78,1.18,2.66,1.82c-0.24,0.33-0.47,0.65-0.71,0.98
			c-0.85-0.62-1.72-1.21-2.6-1.78c-0.85,1.32-1.69,2.64-2.54,3.96c-0.58,0.91-0.59,1.62,0.3,2.23c0.42,0.29,0.76,0.46,0.99,0.56
			c-0.21,0.34-0.42,0.68-0.62,1.01c-0.37-0.11-0.9-0.38-1.5-0.78c-0.73-0.49-1.2-1.06-1.36-1.66c-0.22-0.68,0-1.45,0.52-2.33
			c0.8-1.37,1.61-2.73,2.41-4.1c-0.53-0.31-1.07-0.62-1.61-0.91c0.19-0.35,0.38-0.71,0.58-1.06c0.55,0.3,1.1,0.61,1.65,0.93
			c0.35-0.6,0.71-1.2,1.06-1.8C116.89,449.16,117.6,449.44,118.32,449.73z"/>
	</g>
</g>
<g>
	<g>
		<path d="M70.12,506.86c0.54,1.87,1.06,3.86,1.58,5.95c0.26,1.02,0.47,1.96,0.63,2.89c0.02,0.01,0.03,0.02,0.05,0.02
			c0.21-0.77,0.47-1.53,0.77-2.39c0.59-1.79,1.2-3.7,1.81-5.7c0.55,0.07,1.1,0.14,1.65,0.2c-1.22,3.71-2.45,7.12-3.63,10.09
			c-0.49-0.24-0.97-0.49-1.45-0.75c-0.99-3.92-1.99-7.51-3.06-10.64C69.03,506.65,69.57,506.76,70.12,506.86z"/>
		<path d="M82.78,520.86c-0.04-0.53-0.08-1.06-0.11-1.6c-0.02,0-0.04,0-0.06-0.01c-0.52,0.92-1.51,1.65-2.79,1.36
			c-1.82-0.44-2.69-2.44-2.65-4.11c0.06-2.8,1.97-3.93,5.42-3.64c0-0.09,0-0.17,0-0.26c0.01-1.04-0.17-2.9-1.98-3.03
			c-0.82-0.07-1.68,0.2-2.31,0.66c-0.11-0.49-0.22-0.98-0.33-1.46c0.74-0.55,1.8-0.9,2.91-0.83c2.69,0.14,3.34,2.77,3.32,5.32
			c-0.01,1.58-0.02,3.15-0.03,4.73c-0.01,1.1,0.02,2.17,0.13,3.04C83.79,520.97,83.28,520.92,82.78,520.86z M82.61,514.44
			c-1.78-0.2-3.78-0.11-3.83,2.2c-0.03,1.41,0.66,2.25,1.49,2.42c1.17,0.23,1.93-0.71,2.21-1.74c0.06-0.23,0.1-0.48,0.1-0.71
			C82.59,515.88,82.6,515.16,82.61,514.44z"/>
		<path d="M94.37,516.89c0.02,1.25,0.06,2.34,0.13,3.28c-0.48,0.12-0.96,0.23-1.45,0.33c-0.04-0.66-0.08-1.33-0.12-1.99
			c-0.01,0-0.02,0-0.04,0.01c-0.41,1.06-1.35,2.57-2.97,2.74c-1.44,0.16-3.17-0.94-3.16-5.41c0-2.48,0-4.96,0-7.44
			c0.54,0,1.07,0,1.61-0.01c0.01,2.34,0.02,4.68,0.03,7.03c0.01,2.41,0.54,4.03,2.05,3.88c1.11-0.12,1.86-1.31,2.14-2.34
			c0.09-0.35,0.14-0.76,0.13-1.17c-0.04-2.52-0.07-5.04-0.11-7.57c0.53-0.03,1.07-0.07,1.6-0.11
			C94.27,511.03,94.32,513.96,94.37,516.89z"/>
		<path d="M96.74,502.46c0.53,0,1.06,0,1.58,0c0.12,5.45,0.24,10.9,0.36,16.35c-0.52,0.21-1.05,0.41-1.58,0.59
			C96.98,513.75,96.86,508.11,96.74,502.46z"/>
		<path d="M102.92,504.2c0.01,0.92,0.03,1.85,0.04,2.77c0.74-0.13,1.48-0.28,2.21-0.43c0,0.4,0,0.8,0,1.21
			c-0.72,0.2-1.45,0.39-2.19,0.56c0.02,1.73,0.05,3.47,0.07,5.2c0.02,1.2,0.32,1.73,1.13,1.24c0.38-0.23,0.66-0.46,0.84-0.63
			c0.02,0.39,0.04,0.77,0.07,1.15c-0.27,0.32-0.71,0.72-1.28,1.09c-0.68,0.44-1.24,0.51-1.61,0.2c-0.44-0.31-0.61-1.15-0.63-2.35
			c-0.03-1.86-0.07-3.71-0.1-5.57c-0.44,0.09-0.88,0.18-1.33,0.27c-0.01-0.49-0.02-0.98-0.03-1.47c0.45-0.07,0.89-0.14,1.33-0.21
			c-0.02-0.82-0.03-1.63-0.05-2.45C101.9,504.58,102.41,504.38,102.92,504.2z"/>
	</g>
</g>
<g>
	<g>
		<path d="M133.26,323.31c-1.56,0.86-3.07,1.83-4.54,2.89c-0.26-0.36-0.52-0.72-0.78-1.08c3.68-2.67,7.66-4.73,11.81-6.16
			c0.15,0.42,0.29,0.84,0.44,1.26c-1.66,0.57-3.29,1.25-4.89,2.03c1.58,3.24,3.16,6.47,4.74,9.71c-0.51,0.25-1.02,0.52-1.53,0.8
			C136.75,329.61,135.01,326.46,133.26,323.31z"/>
		<path d="M142.33,324.57c-0.32-0.98-0.62-1.81-0.94-2.55c0.59-0.2,1.19-0.38,1.79-0.55c0.18,0.54,0.36,1.08,0.53,1.63
			c0.03-0.01,0.06-0.02,0.09-0.03c0.17-1.26,1.25-2.31,2.66-2.59c0.24-0.05,0.41-0.06,0.61-0.06c0.09,0.49,0.18,0.98,0.27,1.47
			c-0.21,0-0.42,0.02-0.7,0.08c-1.43,0.29-2.22,1.38-2.16,2.6c0.01,0.22,0.04,0.47,0.11,0.74c0.41,1.49,0.82,2.99,1.23,4.48
			c-0.54,0.15-1.07,0.31-1.6,0.48C143.58,328.36,142.96,326.46,142.33,324.57z"/>
		<path d="M151.47,317.55c0.06,0.54-0.46,1-1.32,1.09c-0.77,0.08-1.37-0.27-1.44-0.81c-0.08-0.55,0.46-1.06,1.29-1.15
			C150.86,316.59,151.43,316.99,151.47,317.55z M150.39,328.87c-0.37-2.88-0.73-5.76-1.1-8.64c0.7-0.09,1.41-0.16,2.11-0.21
			c0.22,2.9,0.44,5.79,0.66,8.69C151.5,328.74,150.94,328.8,150.39,328.87z"/>
		<path d="M155.73,319.91c0.72,1.65,1.34,3.32,1.88,5.01c0.27,0.82,0.47,1.56,0.59,2.3c0.02,0,0.04,0,0.06,0.01
			c0.3-0.69,0.66-1.38,1.1-2.12c0.87-1.53,1.83-3.04,2.88-4.5c0.73,0.14,1.45,0.29,2.18,0.46c-2.17,2.46-4.05,5.08-5.62,7.81
			c-0.53-0.07-1.06-0.12-1.6-0.17c-0.94-2.99-2.18-5.94-3.74-8.8C154.22,319.88,154.97,319.88,155.73,319.91z"/>
		<path d="M169.45,320.01c-0.16,0.52-0.83,0.73-1.66,0.46c-0.74-0.24-1.16-0.8-1.01-1.32c0.15-0.54,0.85-0.79,1.66-0.53
			C169.27,318.89,169.64,319.48,169.45,320.01z M163.91,329.94c0.82-2.79,1.63-5.57,2.45-8.36c0.68,0.2,1.36,0.42,2.04,0.65
			c-0.96,2.74-1.92,5.48-2.88,8.23C164.99,330.27,164.45,330.1,163.91,329.94z"/>
		<path d="M172.77,334.03c0.16-0.33,0.32-0.66,0.48-1c-0.02-0.01-0.03-0.02-0.05-0.03c-0.84,0.27-2.02,0.25-3.21-0.38
			c-1.67-0.87-2.1-2.36-1.62-3.54c0.76-1.92,3.45-2.23,7.14,0.12c0.03-0.05,0.06-0.1,0.1-0.15c0.39-0.59,0.9-1.87-1.21-3.07
			c-0.95-0.53-2.09-0.81-2.98-0.78c0-0.38,0-0.77-0.01-1.15c1.07-0.03,2.51,0.32,3.84,1.07c3.23,1.89,2.84,4.01,1.82,5.39
			c-0.63,0.88-1.27,1.76-1.9,2.65c-0.44,0.61-0.84,1.24-1.09,1.79C173.65,334.63,173.21,334.32,172.77,334.03z M174.96,330.15
			c-1.8-1.23-4.12-2.01-4.84-0.47c-0.44,0.93,0.03,1.69,0.83,2.13c1.11,0.61,2.17,0.44,2.83-0.02c0.14-0.1,0.28-0.23,0.36-0.37
			C174.41,331,174.69,330.58,174.96,330.15z"/>
	</g>
</g>
<g>
	<g>
		<path d="M145.23,382.79c0.75-0.12,1.75-0.23,3.01-0.23c1.55,0,2.67,0.43,3.39,1.25c0.66,0.73,1.04,1.86,1.03,3.23
			c-0.02,1.39-0.36,2.46-0.99,3.16c-0.85,0.99-2.23,1.26-3.72,0.8c-0.46-0.14-0.88-0.3-1.22-0.51c-0.02,1.74-0.03,3.49-0.05,5.23
			c-0.49-0.29-0.97-0.6-1.44-0.93C145.23,390.78,145.23,386.79,145.23,382.79z M146.73,389.11c0.33,0.19,0.75,0.35,1.26,0.47
			c1.86,0.47,3.05-0.51,3.08-2.58c0.03-1.99-1.09-2.97-2.82-3.03c-0.68-0.03-1.2,0-1.47,0.06
			C146.77,385.72,146.75,387.41,146.73,389.11z"/>
		<path d="M154.41,390.58c0.01-1.32,0-2.46-0.05-3.5c0.47,0.02,0.94,0.03,1.41,0.03c0.02,0.74,0.03,1.48,0.05,2.22
			c0.02,0,0.05,0,0.07,0c0.41-1.51,1.38-2.47,2.45-2.49c0.18,0,0.31,0.01,0.46,0.06c0,0.64,0.01,1.28,0.01,1.93
			c-0.17-0.04-0.33-0.06-0.55-0.05c-1.14,0.04-1.95,1.13-2.17,2.67c-0.04,0.28-0.08,0.61-0.08,0.96c0,2.01-0.01,4.02-0.01,6.03
			c-0.55-0.02-1.1-0.06-1.64-0.12C154.37,395.72,154.39,393.15,154.41,390.58z"/>
		<path d="M168.06,390.35c-0.01,3.12-2.01,6.03-4.11,6.91c-2.35,0.99-4.3-1.01-4.32-4.55c-0.03-3.76,1.89-6.02,4.29-6.25
			C166.43,386.26,168.07,387.77,168.06,390.35z M161.27,392.43c0.03,2.4,1.19,3.99,2.73,3.4c1.5-0.59,2.54-2.73,2.53-4.81
			c-0.02-1.57-0.75-3.4-2.61-3.16C162.04,388.11,161.24,390.34,161.27,392.43z"/>
	</g>
</g>
<g>
	<g>
		<path d="M278.1,332.04c0.95-0.15,2.17-0.55,3.27-1.23c1.62-1,2.2-2.26,1.62-3.34c-0.54-0.99-1.57-1.2-3.71-0.63
			c-2.54,0.75-4.47,0.91-5.48-0.48c-1.12-1.51-0.1-4.04,2.84-5.79c1.54-0.91,2.82-1.26,3.64-1.34c0.01,0.47,0.03,0.94,0.05,1.42
			c-0.58,0.06-1.76,0.28-3.1,1.08c-2.01,1.21-2.19,2.56-1.73,3.24c0.63,0.95,1.77,0.82,4,0.25c2.74-0.69,4.38-0.35,5.17,1.23
			c0.83,1.7,0.09,3.8-2.73,5.54c-1.16,0.72-2.58,1.3-3.47,1.41C278.35,332.94,278.22,332.49,278.1,332.04z"/>
		<path d="M294.44,324.67c-0.01,0-0.03,0.01-0.04,0.01c-0.28,0.99-1.13,1.96-2.63,2.51c-2.15,0.78-4.61,0-5.75-2.39
			c-1.41-2.95,0.58-5.45,2.93-6.28c1.7-0.61,3.05-0.32,3.83,0.33c0.02,0,0.03-0.01,0.04-0.01c-0.1-0.43-0.2-0.85-0.3-1.28
			c0.63-0.19,1.27-0.36,1.91-0.53c0.14,0.73,0.31,1.46,0.54,2.33c0.83,3.19,1.67,6.38,2.5,9.56c-0.54,0.14-1.08,0.29-1.62,0.45
			C295.37,327.81,294.91,326.24,294.44,324.67z M293.34,320.99c-0.06-0.21-0.15-0.44-0.28-0.61c-0.56-0.85-1.86-1.33-3.33-0.81
			c-2.04,0.73-2.69,2.53-1.92,4.33c0.68,1.6,2.16,2.58,4.06,1.9c1.12-0.4,1.91-1.3,2.01-2.48c0.02-0.23-0.01-0.54-0.07-0.77
			C293.65,322.04,293.5,321.51,293.34,320.99z"/>
		<path d="M307.51,321.43c0.04,0.9,0.1,1.69,0.19,2.37c-0.53,0.02-1.06,0.05-1.58,0.09c-0.07-0.47-0.14-0.94-0.21-1.41
			c-0.01,0-0.03,0-0.04,0c-0.43,0.74-1.38,1.73-3.1,1.96c-1.52,0.2-3.47-0.18-4.11-3.17c-0.34-1.66-0.68-3.33-1.02-4.99
			c0.68-0.14,1.37-0.27,2.06-0.38c0.27,1.59,0.54,3.17,0.8,4.76c0.28,1.64,1.04,2.62,2.68,2.41c1.21-0.15,1.99-0.96,2.28-1.68
			c0.09-0.24,0.13-0.54,0.11-0.82c-0.14-1.78-0.28-3.55-0.42-5.33c0.69-0.05,1.39-0.1,2.08-0.13
			C307.33,317.21,307.42,319.32,307.51,321.43z"/>
		<path d="M316.02,324.1c-0.01-0.37-0.01-0.74-0.02-1.11c-0.02,0-0.04,0-0.06-0.01c-0.64,0.62-1.74,1.12-3.13,1.04
			c-1.97-0.1-2.99-1.31-3-2.58c-0.04-2.08,2.3-3.35,6.51-2.9c0.01-0.06,0.01-0.12,0.02-0.18c0.08-0.7-0.02-2.06-2.34-2.23
			c-1.05-0.07-2.15,0.14-2.94,0.52c-0.15-0.35-0.3-0.7-0.45-1.05c0.94-0.46,2.33-0.72,3.78-0.62c3.53,0.29,4.1,2.29,3.84,4
			c-0.15,1.08-0.31,2.15-0.46,3.23c-0.11,0.75-0.17,1.49-0.14,2.09C317.1,324.23,316.56,324.16,316.02,324.1z M316.24,319.65
			c-2.11-0.28-4.53-0.05-4.57,1.64c-0.03,1.03,0.74,1.53,1.67,1.59c1.3,0.08,2.19-0.54,2.57-1.24c0.08-0.15,0.14-0.33,0.16-0.49
			C316.13,320.65,316.19,320.15,316.24,319.65z"/>
		<path d="M321.49,318.89c0.2-1.01,0.35-1.88,0.44-2.68c0.6,0.12,1.2,0.25,1.79,0.38c-0.1,0.56-0.21,1.12-0.31,1.68
			c0.03,0.01,0.06,0.01,0.09,0.02c0.75-1.03,2.17-1.45,3.53-1.06c0.23,0.07,0.39,0.13,0.56,0.22c-0.14,0.48-0.28,0.95-0.43,1.43
			c-0.19-0.09-0.39-0.17-0.66-0.25c-1.4-0.4-2.6,0.19-3.13,1.29c-0.09,0.2-0.19,0.44-0.26,0.7c-0.35,1.51-0.71,3.02-1.06,4.52
			c-0.58-0.14-1.16-0.26-1.74-0.38C320.71,322.81,321.1,320.85,321.49,318.89z"/>
		<path d="M328.9,322.91c-0.65,2.04,0.55,3.39,2.25,4.12c1.22,0.52,2.03,0.69,2.78,0.78c-0.07,0.39-0.14,0.77-0.22,1.16
			c-0.7-0.06-1.81-0.29-3.27-0.9c-2.8-1.17-4.03-3.35-3.26-5.87c0.75-2.51,3.36-3.92,6.55-2.61c3.55,1.52,3.27,4.3,2.53,5.69
			c-0.15,0.29-0.3,0.49-0.4,0.63C333.59,324.74,331.27,323.75,328.9,322.91z M334.69,324.06c0.45-0.89,0.62-2.59-1.56-3.5
			c-1.97-0.8-3.33,0.31-3.84,1.29C331.12,322.49,332.92,323.23,334.69,324.06z"/>
		<path d="M336.65,329.09c0.34,0.54,1.03,1.32,1.83,1.82c1.16,0.73,2.02,0.63,2.42,0.03c0.42-0.62,0.2-1.29-0.82-2.44
			c-1.38-1.51-1.8-2.7-1.29-3.62c0.67-1.23,2.59-1.52,4.76-0.12c1.02,0.66,1.75,1.48,2.12,2.1c-0.37,0.21-0.74,0.42-1.11,0.63
			c-0.25-0.44-0.79-1.16-1.7-1.76c-1.06-0.68-1.94-0.57-2.27-0.02c-0.37,0.62,0.05,1.24,1.04,2.39c1.32,1.55,1.65,2.76,0.89,3.8
			c-0.92,1.24-2.67,1.25-4.71-0.02c-0.94-0.59-1.71-1.3-2.17-1.96C335.98,329.64,336.31,329.37,336.65,329.09z"/>
	</g>
</g>
<g>
	<g>
		<path d="M332.97,439.56c0.59-0.43,1.19-0.85,1.79-1.25c2.01,3,4.02,5.99,6.03,8.99c1.63-1.09,3.31-2.08,5.03-2.95
			c0.2,0.39,0.4,0.78,0.59,1.17c-2.18,1.1-4.29,2.39-6.31,3.86C337.72,446.11,335.35,442.83,332.97,439.56z"/>
		<path d="M356.66,435.43c0.77,4.11-1.41,6.78-4.46,7.85c-3.16,1.1-6.43,0.02-8.13-3.25c-1.78-3.4,0.02-7.21,4.25-8.67
			C352.64,429.9,356.01,431.91,356.66,435.43z M345.91,439.12c1.1,2.36,3.46,3.79,5.97,2.92c2.53-0.87,3.49-3.4,2.86-6.1
			c-0.54-2.33-2.76-4.46-6.09-3.34C345.35,433.76,344.79,436.72,345.91,439.12z"/>
		<path d="M369,440.16c-0.63,0.27-1.84,0.52-3.4,0.58c-3.54,0.13-6.58-1.46-7.35-5.38c-0.75-3.7,2.21-6.97,7.34-7.14
			c2.03-0.06,3.3,0.32,3.84,0.55c-0.18,0.42-0.36,0.84-0.54,1.26c-0.76-0.31-1.87-0.54-3.19-0.5c-3.77,0.12-5.98,2.33-5.5,5.47
			c0.45,2.95,2.55,4.52,5.7,4.41c1.03-0.03,2.08-0.22,2.78-0.51C368.79,439.33,368.9,439.75,369,440.16z"/>
		<path d="M372.03,428.58c0.7,0.06,1.39,0.12,2.08,0.2c-0.23,1.94-0.45,3.88-0.68,5.81c0.02,0,0.04,0.01,0.07,0.01
			c0.44-0.42,0.89-0.8,1.32-1.14c1.72-1.29,3.56-2.5,5.52-3.62c0.85,0.19,1.69,0.4,2.53,0.64c-2.35,1.13-4.56,2.41-6.61,3.8
			c1.51,2.62,2.76,5.3,3.74,8c-0.63-0.18-1.27-0.35-1.91-0.5c-0.92-2.26-2.03-4.5-3.32-6.69c-0.52,0.37-1.02,0.76-1.52,1.15
			c-0.18,1.53-0.36,3.06-0.54,4.6c-0.55-0.06-1.1-0.12-1.65-0.16C371.38,436.65,371.7,432.61,372.03,428.58z"/>
		<path d="M387.59,431.8c-1.06,1.22-2.63,2.71-3.48,3.31c-0.41-0.09-0.83-0.18-1.24-0.26c0.77-0.88,1.92-2.48,2.58-3.63
			C386.16,431.4,386.88,431.6,387.59,431.8z"/>
		<path d="M389.71,433.02c1.25,0.36,2.71,0.9,4.22,1.67c2.75,1.41,4.37,3.07,5.02,4.69c0.68,1.64,0.51,3.27-0.65,4.86
			c-1.17,1.6-2.72,2.46-4.42,2.67c-1.71,0.22-3.75-0.34-6.03-1.47c-1.08-0.54-1.98-0.99-2.73-1.4
			C386.66,440.37,388.18,436.69,389.71,433.02z M387.18,443.62c0.37,0.25,0.94,0.54,1.55,0.84c3.27,1.67,5.99,1.35,7.86-1.36
			c1.63-2.31,0.86-5.18-3.13-7.26c-0.97-0.5-1.74-0.78-2.28-0.93C389.85,437.82,388.51,440.72,387.18,443.62z"/>
	</g>
</g>
<g>
	<g>
		<path d="M273.02,569.16c0.92-0.85,2.07-1.78,3.43-2.66c2.45-1.58,4.52-2.14,6.17-1.9c1.67,0.22,2.99,1.14,3.87,2.89
			c0.89,1.77,0.99,3.53,0.41,5.11c-0.57,1.6-2.03,3.12-4.19,4.54c-1.02,0.67-1.9,1.23-2.66,1.67
			C277.7,575.6,275.36,572.38,273.02,569.16z M280.77,576.82c0.41-0.19,0.95-0.54,1.53-0.91c3.11-2.01,4.02-4.55,2.49-7.47
			c-1.31-2.53-4-3.24-7.59-0.95c-0.87,0.56-1.48,1.06-1.86,1.44C277.15,571.56,278.96,574.19,280.77,576.82z"/>
		<path d="M296.05,570.22c-0.17-0.33-0.34-0.65-0.51-0.98c-0.02,0.01-0.04,0.01-0.06,0.02c-0.25,0.83-0.96,1.76-2.18,2.28
			c-1.73,0.75-3.14,0.07-3.69-1.07c-0.93-1.87,0.53-3.93,4.2-5.33c-0.02-0.06-0.04-0.11-0.06-0.17c-0.25-0.67-0.94-1.82-2.92-1.01
			c-0.9,0.37-1.72,1.02-2.22,1.68c-0.28-0.26-0.55-0.51-0.83-0.76c0.59-0.79,1.63-1.6,2.86-2.11c3.02-1.22,4.37,0.29,4.94,1.92
			c0.36,1.02,0.73,2.05,1.09,3.07c0.25,0.71,0.54,1.4,0.84,1.92C297.02,569.86,296.54,570.03,296.05,570.22z M294.24,566.15
			c-1.86,0.66-3.8,1.87-3.1,3.41c0.42,0.93,1.3,1.07,2.12,0.73c1.14-0.48,1.61-1.43,1.61-2.22c0-0.17-0.03-0.36-0.09-0.51
			C294.59,567.09,294.42,566.62,294.24,566.15z"/>
		<path d="M299.24,567.4c0.58,0.14,1.53,0.19,2.35-0.04c1.2-0.33,1.62-1.02,1.45-1.72c-0.18-0.73-0.77-1.02-2.15-1.09
			c-1.84-0.07-2.91-0.62-3.23-1.62c-0.43-1.33,0.52-2.86,2.71-3.45c1.03-0.27,1.99-0.24,2.62-0.09c-0.07,0.41-0.13,0.82-0.2,1.23
			c-0.44-0.12-1.23-0.22-2.16,0.02c-1.07,0.29-1.52,0.98-1.33,1.6c0.2,0.69,0.87,0.83,2.24,0.91c1.82,0.12,2.83,0.69,3.11,1.95
			c0.33,1.5-0.67,2.81-2.78,3.39c-0.97,0.27-1.94,0.32-2.68,0.18C299.21,568.26,299.22,567.83,299.24,567.4z"/>
		<path d="M304.89,554.49c0.65-0.12,1.31-0.24,1.96-0.35c0.3,1.79,0.59,3.58,0.89,5.36c0.01,0,0.03,0,0.04-0.01
			c0.22-0.49,0.62-0.96,1.15-1.31c0.51-0.35,1.15-0.62,1.86-0.7c1.4-0.18,3.69,0.36,3.89,3.36c0.13,1.72,0.25,3.45,0.38,5.17
			c-0.56,0.04-1.11,0.09-1.67,0.14c-0.16-1.66-0.33-3.32-0.49-4.98c-0.13-1.39-0.86-2.53-2.61-2.31c-1.2,0.16-2.03,1.02-2.22,1.93
			c-0.07,0.23-0.05,0.47,0,0.77c0.29,1.73,0.57,3.46,0.86,5.19c-0.55,0.09-1.1,0.19-1.65,0.29
			C306.49,562.86,305.69,558.68,304.89,554.49z"/>
		<path d="M317.71,565.88c0.02-0.59,0.03-1.48,0-2.25c-0.12-3.51-0.24-7.02-0.36-10.53c0.65-0.02,1.31-0.04,1.96-0.04
			c0.02,1.82,0.04,3.65,0.05,5.47c0.01,0,0.03,0,0.04,0c0.64-0.98,1.85-1.61,3.53-1.55c2.6,0.1,4.25,2.09,3.96,4.71
			c-0.32,3.1-2.52,4.44-4.54,4.38c-1.33-0.04-2.38-0.53-3.09-1.67c-0.02,0-0.04,0-0.06,0c-0.02,0.48-0.04,0.96-0.06,1.44
			C318.67,565.85,318.19,565.86,317.71,565.88z M319.4,562.35c0,0.2,0.04,0.39,0.09,0.58c0.35,1.1,1.33,1.84,2.56,1.88
			c1.76,0.05,2.92-1.21,3.07-3.2c0.13-1.74-0.82-3.32-2.82-3.38c-1.27-0.04-2.46,0.7-2.82,1.92c-0.04,0.18-0.1,0.4-0.1,0.65
			C319.39,561.3,319.4,561.83,319.4,562.35z"/>
		<path d="M337.87,563.62c-0.82,3.11-3.45,3.9-5.62,3.51c-2.43-0.44-4.13-2.36-3.84-5.1c0.3-2.9,2.78-4.36,5.65-3.83
			C337.03,558.75,338.55,561.05,337.87,563.62z M330.2,562.21c-0.25,1.89,0.71,3.47,2.34,3.77c1.59,0.29,3.09-0.82,3.54-2.73
			c0.33-1.43-0.09-3.47-2.28-3.88C331.61,558.97,330.42,560.57,330.2,562.21z"/>
		<path d="M343.73,570.07c0.08-0.36,0.17-0.72,0.25-1.08c-0.02-0.01-0.04-0.01-0.05-0.02c-0.73,0.46-1.88,0.7-3.13,0.3
			c-1.78-0.56-2.38-2-2.05-3.22c0.53-2.02,2.94-2.63,6.62-1.29c0.02-0.06,0.04-0.11,0.06-0.17c0.25-0.67,0.48-1.99-1.53-2.67
			c-0.92-0.3-1.95-0.36-2.75-0.18c-0.04-0.37-0.08-0.75-0.12-1.12c0.95-0.22,2.25-0.15,3.51,0.28c3.07,1.05,3.11,3.08,2.46,4.69
			c-0.4,1.01-0.8,2.02-1.19,3.03c-0.28,0.7-0.51,1.4-0.62,2C344.7,570.43,344.22,570.25,343.73,570.07z M345.03,565.8
			c-1.84-0.72-4.07-1.08-4.55,0.55c-0.29,0.98,0.27,1.66,1.11,1.93c1.16,0.38,2.14-0.03,2.66-0.62c0.11-0.13,0.21-0.29,0.27-0.44
			C344.68,566.75,344.85,566.28,345.03,565.8z"/>
		<path d="M349.98,566.13c0.42-0.94,0.75-1.76,1.02-2.52c0.51,0.23,1.03,0.46,1.54,0.7c-0.22,0.53-0.44,1.05-0.66,1.58
			c0.03,0.01,0.05,0.02,0.08,0.04c0.92-0.86,2.3-1.03,3.46-0.43c0.2,0.1,0.33,0.19,0.46,0.3c-0.23,0.44-0.46,0.88-0.69,1.32
			c-0.16-0.12-0.32-0.23-0.55-0.35c-1.2-0.62-2.42-0.26-3.16,0.71c-0.13,0.18-0.28,0.39-0.39,0.63c-0.66,1.4-1.32,2.8-1.98,4.2
			c-0.51-0.24-1.02-0.47-1.54-0.7C348.37,569.79,349.18,567.96,349.98,566.13z"/>
		<path d="M367.56,568.45c-2.06,2.84-4.12,5.69-6.18,8.53c-0.45,0.63-0.95,1.35-1.26,1.87c-0.43-0.31-0.85-0.61-1.28-0.91
			c0.26-0.43,0.53-0.86,0.79-1.29c-0.01-0.01-0.02-0.02-0.03-0.02c-1.01,0.49-2.38,0.44-3.7-0.38c-1.93-1.2-2.64-3.59-1.4-5.93
			c1.33-2.57,4.14-3.1,6.39-1.69c1.4,0.88,1.98,2.04,1.98,2.89c0.01,0.01,0.02,0.02,0.04,0.03c0.98-1.43,1.96-2.86,2.94-4.29
			C366.43,567.64,367,568.04,367.56,568.45z M361.55,573.53c0.11-0.16,0.25-0.4,0.31-0.6c0.34-0.99-0.07-2.28-1.3-3.05
			c-1.7-1.07-3.45-0.39-4.4,1.28c-0.87,1.54-0.76,3.26,0.85,4.27c1,0.63,2.29,0.66,3.24-0.13c0.17-0.14,0.31-0.31,0.46-0.52
			C360.98,574.36,361.27,573.94,361.55,573.53z"/>
	</g>
</g>
<g>
	<g>
		<path d="M292.45,629.76c-0.69,0.06-2.05-0.03-3.6-0.92c-1.73-0.99-3.1-2.49-4.18-4.36c-0.95-1.67-1.55-3.57-1.55-5.45
			c-0.01-3.42,2.48-6.08,6.57-6.27c1.41-0.01,2.49,0.42,3,0.8c-0.15,0.61-0.3,1.21-0.44,1.81c-0.63-0.46-1.42-0.82-2.64-0.89
			c-2.95-0.07-4.88,1.8-4.91,4.99c-0.02,3.23,1.64,6.27,4.31,7.73c0.97,0.49,1.66,0.61,2.01,0.52c0.06-1.68,0.12-3.35,0.18-5.03
			c-0.8-0.24-1.6-0.49-2.4-0.74c0.02-0.54,0.03-1.08,0.05-1.62c1.29,0.34,2.6,0.67,3.91,0.97
			C292.66,624.12,292.56,626.94,292.45,629.76z"/>
		<path d="M295.91,625.62c-0.09,3.34,1.21,5.26,2.79,5.8c1.14,0.38,1.84,0.24,2.46-0.03c0.07,0.68,0.14,1.36,0.21,2.05
			c-0.58,0.27-1.56,0.45-2.95-0.06c-2.68-1.06-4.14-4.49-3.99-8.41c0.15-3.93,1.81-6.87,4.35-6.68c2.84,0.23,3.46,4.69,3.37,7.52
			c-0.02,0.57-0.07,1-0.1,1.28C299.97,626.68,297.93,626.18,295.91,625.62z M300.61,624.84c0.08-1.73-0.26-4.47-2.05-4.69
			c-1.6-0.2-2.39,2.01-2.58,3.69C297.52,624.21,299.06,624.54,300.61,624.84z"/>
		<path d="M304.2,623.38c0.05-1.62,0.07-2.95,0.06-4.24c0.47,0.04,0.94,0.07,1.42,0.11c0,0.88,0.01,1.76,0.02,2.64
			c0.01,0,0.02,0,0.04,0c0.48-1.46,1.54-2.89,2.99-2.82c1.22,0.06,3.08,1.52,2.98,7.28c-0.06,3.34-0.12,6.67-0.18,10.01
			c-0.55-0.08-1.1-0.16-1.65-0.25c0.07-3.19,0.13-6.37,0.2-9.56c0.06-2.68-0.43-4.94-1.94-5.05c-1.06-0.08-1.91,1.21-2.23,2.79
			c-0.08,0.35-0.13,0.84-0.15,1.34c-0.09,3.2-0.18,6.39-0.27,9.59c-0.54-0.13-1.09-0.27-1.63-0.41
			C303.97,630.99,304.08,627.18,304.2,623.38z"/>
		<path d="M315.23,628.8c-0.01,4.19,1.4,6.04,3.06,6.09c1.19,0.04,1.91-0.35,2.53-0.85c0.09,0.75,0.19,1.49,0.29,2.24
			c-0.58,0.5-1.59,1.08-3.05,1.02c-2.83-0.13-4.46-3.79-4.38-8.88c0.08-5.1,1.7-9.07,4.27-9.05c2.88,0.03,3.66,4.95,3.67,8.12
			c0,0.64-0.04,1.14-0.05,1.46C319.45,628.97,317.33,628.92,315.23,628.8z M320.03,626.71c0.02-1.99-0.42-5.08-2.23-5.11
			c-1.63-0.02-2.38,2.84-2.53,4.98C316.86,626.66,318.44,626.7,320.03,626.71z"/>
		<path d="M323.62,625.11c-0.01-2.02-0.04-3.76-0.11-5.35c0.47-0.01,0.94-0.01,1.41-0.02c0.03,1.12,0.06,2.24,0.09,3.35
			c0.02,0,0.05,0,0.07,0c0.38-2.31,1.33-3.78,2.41-3.81c0.18-0.01,0.31,0.02,0.46,0.09c0.01,0.97,0.03,1.93,0.04,2.9
			c-0.17-0.06-0.33-0.09-0.55-0.08c-1.14,0.05-1.93,1.73-2.13,4.07c-0.03,0.42-0.07,0.92-0.06,1.45c0.03,3.04,0.06,6.07,0.09,9.11
			c-0.55,0.04-1.1,0.07-1.65,0.1C323.67,632.98,323.64,629.04,323.62,625.11z"/>
		<path d="M334.77,635.41c-0.06-0.67-0.12-1.33-0.18-2c-0.02,0-0.04,0.01-0.06,0.01c-0.47,1.36-1.4,2.72-2.7,2.96
			c-1.84,0.33-2.82-1.96-2.86-4.4c-0.07-4.09,1.82-6.42,5.24-6.78c0-0.11-0.01-0.22-0.01-0.33c-0.04-1.34-0.3-3.7-2.11-3.58
			c-0.82,0.06-1.67,0.59-2.28,1.39c-0.13-0.66-0.27-1.32-0.4-1.98c0.72-0.94,1.76-1.57,2.87-1.62c2.69-0.13,3.44,3.11,3.53,6.29
			c0.06,1.98,0.12,3.96,0.17,5.94c0.04,1.38,0.12,2.71,0.26,3.77C335.76,635.18,335.27,635.3,334.77,635.41z M334.31,627.23
			c-1.76,0.19-3.76,0.97-3.7,4.21c0.04,1.96,0.77,2.79,1.61,2.64c1.17-0.2,1.88-1.7,2.1-3.11c0.05-0.31,0.08-0.65,0.07-0.95
			C334.36,629.1,334.34,628.16,334.31,627.23z"/>
		<path d="M339.91,614.56c0.05,1.43,0.1,2.86,0.15,4.3c0.76-0.07,1.52-0.15,2.27-0.23c0.02,0.66,0.05,1.33,0.07,1.99
			c-0.76,0.11-1.51,0.21-2.27,0.31c0.09,2.69,0.19,5.38,0.28,8.07c0.06,1.86,0.41,2.82,1.3,2.54c0.42-0.13,0.72-0.32,0.91-0.48
			c0.05,0.65,0.1,1.3,0.14,1.94c-0.3,0.32-0.78,0.65-1.4,0.86c-0.74,0.26-1.36,0.05-1.77-0.59c-0.48-0.68-0.7-2-0.75-3.8
			c-0.09-2.78-0.18-5.57-0.28-8.35c-0.45,0.05-0.91,0.1-1.36,0.15c-0.02-0.72-0.05-1.44-0.07-2.16c0.45-0.04,0.91-0.07,1.36-0.11
			c-0.04-1.22-0.08-2.45-0.12-3.67C338.89,615.07,339.4,614.81,339.91,614.56z"/>
		<path d="M351.99,622.95c0.12,4.1-1.92,7.17-3.97,8.2c-2.29,1.15-4.21-0.95-4.38-5.47c-0.18-4.79,1.63-7.75,4.02-7.99
			C350.15,617.45,351.89,619.56,351.99,622.95z M345.23,625.18c0.11,3.02,1.29,4.87,2.8,4.19c1.47-0.67,2.49-3.16,2.4-5.81
			c-0.07-2-0.88-4.4-2.73-4.12C345.84,619.72,345.13,622.56,345.23,625.18z"/>
		<path d="M353.86,620.36c-0.03-1.24-0.08-2.31-0.15-3.28c0.45-0.08,0.91-0.15,1.36-0.23c0.03,0.65,0.06,1.3,0.09,1.95
			c0.02-0.01,0.05-0.01,0.07-0.02c0.36-1.45,1.28-2.41,2.31-2.59c0.18-0.03,0.3-0.03,0.44-0.02c0,0.5,0,1,0,1.5
			c-0.16,0-0.31,0.03-0.52,0.08c-1.07,0.26-1.83,1.39-2.01,2.82c-0.03,0.26-0.06,0.56-0.05,0.86c0.03,1.76,0.06,3.52,0.1,5.28
			c-0.48,0.31-0.96,0.61-1.45,0.91C353.98,625.2,353.92,622.78,353.86,620.36z"/>
	</g>
</g>
<g>
	<path class="st5" d="M189.5,252.5V146.88l-0.02-0.06c-1.98-7.26-2.98-14.94-2.98-22.82c0-33.36,18.17-60.5,40.5-60.5
		s40.5,27.14,40.5,60.5c0,6.42-0.67,12.73-1.99,18.76l-0.01,0.05V252.5H189.5z"/>
	<path d="M227,64c22.06,0,40,26.92,40,60c0,6.39-0.67,12.66-1.98,18.66l-0.02,0.11v0.11V252h-75V146.95v-0.13l-0.04-0.13
		C188,139.47,187,131.84,187,124C187,90.92,204.94,64,227,64 M227,63c-22.64,0-41,27.31-41,61c0,8.12,1.07,15.87,3,22.95V253h77
		V142.87c1.3-5.94,2-12.28,2-18.87C268,90.31,249.64,63,227,63L227,63z"/>
</g>
<g>
	<path class="st5" d="M189.5,252.5V146.88l-0.02-0.06c-1.98-7.26-2.98-14.94-2.98-22.82c0-33.36,18.17-60.5,40.5-60.5
		s40.5,27.14,40.5,60.5c0,6.42-0.67,12.73-1.99,18.76l-0.01,0.05V252.5H189.5z"/>
	<path d="M227,64c22.06,0,40,26.92,40,60c0,6.39-0.67,12.66-1.98,18.66l-0.02,0.11v0.11V252h-75V146.95v-0.13l-0.04-0.13
		C188,139.47,187,131.84,187,124C187,90.92,204.94,64,227,64 M227,63c-22.64,0-41,27.31-41,61c0,8.12,1.07,15.87,3,22.95V253h77
		V142.87c1.3-5.94,2-12.28,2-18.87C268,90.31,249.64,63,227,63L227,63z"/>
</g>
<g>
	<path class="st5" d="M189.5,252.5V146.88l-0.02-0.06c-1.98-7.26-2.98-14.94-2.98-22.82c0-33.36,18.17-60.5,40.5-60.5
		s40.5,27.14,40.5,60.5c0,6.42-0.67,12.73-1.99,18.76l-0.01,0.05V252.5H189.5z"/>
	<path d="M227,64c22.06,0,40,26.92,40,60c0,6.39-0.67,12.66-1.98,18.66l-0.02,0.11v0.11V252h-75V146.95v-0.13l-0.04-0.13
		C188,139.47,187,131.84,187,124C187,90.92,204.94,64,227,64 M227,63c-22.64,0-41,27.31-41,61c0,8.12,1.07,15.87,3,22.95V253h77
		V142.87c1.3-5.94,2-12.28,2-18.87C268,90.31,249.64,63,227,63L227,63z"/>
</g>
<g>
	<path class="st5" d="M192.5,252.5V146.88l-0.02-0.06c-1.98-7.26-2.98-14.94-2.98-22.82c0-33.36,18.17-60.5,40.5-60.5
		s40.5,27.14,40.5,60.5c0,6.42-0.67,12.73-1.99,18.76l-0.01,0.05V252.5H192.5z"/>
	<path d="M230,64c22.06,0,40,26.92,40,60c0,6.39-0.67,12.66-1.98,18.66l-0.02,0.11v0.11V252h-75V146.95v-0.13l-0.04-0.13
		C191,139.47,190,131.84,190,124C190,90.92,207.94,64,230,64 M230,63c-22.64,0-41,27.31-41,61c0,8.12,1.07,15.87,3,22.95V253h77
		V142.87c1.3-5.94,2-12.28,2-18.87C271,90.31,252.64,63,230,63L230,63z"/>
</g>
<g>
	<path class="st5" d="M195.5,252.5V146.88l-0.02-0.06c-1.98-7.26-2.98-14.94-2.98-22.82c0-33.36,18.17-60.5,40.5-60.5
		s40.5,27.14,40.5,60.5c0,6.42-0.67,12.73-1.99,18.76l-0.01,0.05V252.5H195.5z"/>
	<path d="M233,64c22.06,0,40,26.92,40,60c0,6.39-0.67,12.66-1.98,18.66l-0.02,0.11v0.11V252h-75V146.95v-0.13l-0.04-0.13
		C194,139.47,193,131.84,193,124C193,90.92,210.94,64,233,64 M233,63c-22.64,0-41,27.31-41,61c0,8.12,1.07,15.87,3,22.95V253h77
		V142.87c1.3-5.94,2-12.28,2-18.87C274,90.31,255.64,63,233,63L233,63z"/>
</g>
<g>
	<path class="st5" d="M193.5,251.5V145.88l-0.02-0.06c-1.98-7.26-2.98-14.94-2.98-22.82c0-33.36,18.17-60.5,40.5-60.5
		s40.5,27.14,40.5,60.5c0,6.42-0.67,12.73-1.99,18.76l-0.01,0.05V251.5H193.5z"/>
	<path d="M231,63c22.06,0,40,26.92,40,60c0,6.39-0.67,12.66-1.98,18.66l-0.02,0.11v0.11V251h-75V145.95v-0.13l-0.04-0.13
		C192,138.47,191,130.84,191,123C191,89.92,208.94,63,231,63 M231,62c-22.64,0-41,27.31-41,61c0,8.12,1.07,15.87,3,22.95V252h77
		V141.87c1.3-5.94,2-12.28,2-18.87C272,89.31,253.64,62,231,62L231,62z"/>
</g>
<text transform="matrix(6.123234e-17 -1 1 6.123234e-17 235.0049 225.5737)"><tspan x="0" y="0" class="st6 st7 st8">T</tspan><tspan x="10.85" y="0" class="st6 st7">r</tspan><tspan x="18.79" y="0" class="st6 st7">ivia-</tspan><tspan x="60.5" y="0" class="st6 st7">P</tspan><tspan x="72.89" y="0" class="st6 st7">r</tspan><tspan x="80.5" y="0" class="st6 st7">o</tspan></text>
<rect x="213.48" y="132" class="st9" width="45.21" height="101.18"/>
<text transform="matrix(6.123234e-17 -1 1 6.123234e-17 230.5197 233.1777)"><tspan x="0" y="0" class="st6 st7">S</tspan><tspan x="11.98" y="0" class="st6 st7">qua</tspan><tspan x="50.28" y="0" class="st6 st7">r</tspan><tspan x="57.89" y="0" class="st6 st7">es</tspan></text>
<rect x="221.93" y="88.63" class="st9" width="38.36" height="139.73"/>
<text transform="matrix(6.123234e-17 -1 1 6.123234e-17 238.9709 228.356)"><tspan x="0" y="0" class="st6 st7">L</tspan><tspan x="10.39" y="0" class="st6 st7">OC</tspan><tspan x="40.85" y="0" class="st6 st7">K</tspan><tspan x="54.07" y="0" class="st6 st7">’D</tspan></text>
<rect x="217.72" y="-70.97" class="st9" width="30.14" height="318.42"/>
<text transform="matrix(6.123234e-17 -1 1 6.123234e-17 234.7589 247.459)"><tspan x="0" y="0" class="st6 st7">Dashboa</tspan><tspan x="88.77" y="0" class="st6 st7">r</tspan><tspan x="96.38" y="0" class="st6 st7">d </tspan><tspan x="115.01" y="0" class="st6 st7">G</tspan><tspan x="130.63" y="0" class="st6 st7">en.</tspan></text>
<rect x="222.3" y="41.45" class="st9" width="24.66" height="204.11"/>
<text transform="matrix(6.123234e-17 -1 1 6.123234e-17 239.3411 245.5615)"><tspan x="0" y="0" class="st6 st7">Expense</tspan><tspan x="83.45" y="0" class="st6 st7"> </tspan><tspan x="87.55" y="0" class="st6 st7 st8">T</tspan><tspan x="98.4" y="0" class="st6 st7">r</tspan><tspan x="106.13" y="0" class="st6 st7">acker</tspan></text>
<rect x="221.75" y="55.99" class="st9" width="27.4" height="172.6"/>
<text transform="matrix(6.123234e-17 -1 1 6.123234e-17 238.7933 228.5884)"><tspan x="0" y="0" class="st6 st7">P</tspan><tspan x="12.38" y="0" class="st6 st7">r</tspan><tspan x="19.99" y="0" class="st6 st7">oje</tspan><tspan x="51.02" y="0" class="st6 st7">c</tspan><tspan x="62.09" y="0" class="st6 st7">t</tspan><tspan x="70.03" y="0" class="st6 st7"> </tspan><tspan x="74.26" y="0" class="st6 st7">V</tspan><tspan x="86.86" y="0" class="st6 st7">ault</tspan></text>
<rect x="205.84" y="473.47" class="st9" width="101.37" height="28.77"/>
<text transform="matrix(1 0 0 1 205.8354 490.5059)" class="st6 st7">SPIN</text>
</svg>
