<?xml version="1.0" encoding="utf-8"?>
<!-- Generator: Adobe Illustrator 25.0.1, SVG Export Plug-In . SVG Version: 6.00 Build 0)  -->
<svg version="1.1" id="Layer_1" xmlns="http://www.w3.org/2000/svg" xmlns:xlink="http://www.w3.org/1999/xlink" x="0px" y="0px"
	 width="75px" height="100px" viewBox="0 0 349 493" style="enable-background:new 0 0 349 493;" xml:space="preserve">
<style type="text/css">
	.st0{fill:#C1272D;stroke:#F2F2F2;stroke-miterlimit:10;}
	.st1{fill:none;stroke:#F2F2F2;stroke-miterlimit:10;}
	.st2{fill:#F15A24;stroke:#F2F2F2;stroke-miterlimit:10;}
	.st3{fill:#ED1C24;stroke:#F2F2F2;stroke-miterlimit:10;}
	.st4{fill:#F7931E;stroke:#F2F2F2;stroke-miterlimit:10;}
	.st5{fill:#FBB03B;stroke:#F2F2F2;stroke-miterlimit:10;}
	.st6{fill:#00FF00;stroke:#F2F2F2;stroke-miterlimit:10;}
	.st7{fill:#FFFF00;stroke:#F2F2F2;stroke-miterlimit:10;}
	.st8{fill:#0071BC;stroke:#F2F2F2;stroke-miterlimit:10;}
	.st9{fill:#0000FF;stroke:#F2F2F2;stroke-miterlimit:10;}
	.st10{fill:#ffe4c0;stroke:#F2F2F2;stroke-miterlimit:10;}
	.st11{stroke:#000000;stroke-width:5;stroke-miterlimit:10;}
	.st12{fill:none;stroke:#000000;stroke-width:5;stroke-miterlimit:10;}
	.st13{fill:none;stroke:#000000;stroke-miterlimit:10;}
	.st14{fill:#CCCCCC;stroke:#F2F2F2;stroke-miterlimit:10;}
	.st15{fill:#999999;stroke:#B3B3B3;stroke-width:2;stroke-miterlimit:10;}
</style>
<rect x="87.5" y="310.5" class="st0" width="20" height="133"/>
<line class="st1" x1="263.97" y1="21.22" x2="322.97" y2="21.22"/>
<rect x="124.5" y="310.5" class="st2" width="20" height="133"/>
<rect x="104.5" y="310.5" class="st3" width="20" height="133"/>
<rect x="144.5" y="310.5" class="st4" width="20" height="133"/>
<rect x="164.5" y="310.5" class="st5" width="20" height="133"/>
<rect x="201.5" y="310.5" class="st6" width="20" height="133"/>
<rect x="181.5" y="310.5" class="st7" width="20" height="133"/>
<rect x="221.5" y="310.5" class="st8" width="20" height="133"/>
<rect x="241.5" y="310.5" class="st9" width="20" height="133"/>
<path class="st10" d="M172.64,35.22c36.47,0,113.67-50.43,145.33-31c46.66,28.63,34.41,176.42,0,219
	c-44.86,55.52-235.03,50.47-285.5,0c-38.71-38.71-47.11-191.1,0-219C63.35-14.07,136.43,35.22,172.64,35.22"/>
<path class="st10" d="M84.47,215.22v34.99v59.51c0,0,32.01,21,45,21s45-21,45-21v-46.79V188"/>
<path class="st10" d="M264.47,216.22v36.72v56.78c0,0-32.01,21-45,21s-45-21-45-21v-46.79V208"/>
<line class="st11" x1="25.47" y1="215.22" x2="84.47" y2="215.22"/>
<line class="st12" x1="263.97" y1="216.22" x2="322.97" y2="216.22"/>
<circle class="st0 first-circle" cx="95" cy="448" r="70"/>
<circle class="st6 second-circle" cx="212" cy="448" r="10.5"/>
<circle class="st7 first-circle" cx="192" cy="448" r="80"/>
<circle class="st5 second-circle" cx="172" cy="448" r="10.5"/>
<circle class="st4 first-circle" cx="154" cy="448" r="10.5"/>
<circle class="st2 second-circle" cx="135" cy="448" r="10.5"/>
<circle class="st3 first-circle" cx="115" cy="448" r="10.5"/>
<circle class="st9 second-circle" cx="252" cy="448" r="40"/>
<circle class="st8 first-circle" cx="232" cy="448" r="10.5"/>
<line class="st13" x1="143.5" y1="188.5" x2="212.5" y2="188.5"/>
<polygon class="st10" points="45.11,384.14 38.02,377.28 28.34,379.22 32.68,370.36 27.83,361.76 37.61,363.14 44.29,355.88 
	45.99,365.6 54.97,369.71 46.25,374.34 "/>
<polygon class="st10" points="311.11,356.14 304.02,349.28 294.34,351.22 298.68,342.36 293.83,333.76 303.61,335.14 310.29,327.88 
	311.99,337.6 320.97,341.71 312.25,346.34 "/>
<polygon class="st14" points="32.73,311.28 29.07,308.48 24.47,308.86 26.25,305.72 23.61,302.35 28.37,303.21 31.33,300.75 
	32.5,304.42 36.97,306.27 32.93,307.68 "/>
<polygon class="st14" points="318.84,389.21 315.18,386.41 310.58,386.79 312.36,383.65 309.72,380.28 314.48,381.14 317.44,378.68 
	318.61,382.35 323.08,384.2 319.04,385.61 "/>
<polygon class="st14" points="62.84,303.21 59.18,300.41 54.58,300.79 56.36,297.65 53.72,294.28 58.48,295.14 61.44,292.68 
	62.61,296.35 67.08,298.2 63.04,299.61 "/>
<polygon class="st14" points="57.84,426.21 54.18,423.41 49.58,423.79 51.36,420.65 48.72,417.28 53.48,418.14 56.44,415.68 
	57.61,419.35 62.08,421.2 58.04,422.61 "/>
<polygon class="st14" points="288.84,437.21 285.18,434.41 280.58,434.79 282.36,431.65 279.72,428.28 284.48,429.14 287.44,426.68 
	288.61,430.35 293.08,432.2 289.04,433.61 "/>
<polygon class="st14" points="295.84,311.21 292.18,308.41 287.58,308.79 289.36,305.65 286.72,302.28 291.48,303.14 294.44,300.68 
	295.61,304.35 300.08,306.2 296.04,307.61 "/>
<polygon class="st10" points="34.11,465.14 27.02,458.28 17.34,460.22 21.68,451.36 16.83,442.76 26.61,444.14 33.29,436.88 
	34.99,446.6 43.97,450.71 35.25,455.34 "/>
<line class="st15" x1="331.5" y1="282.5" x2="330.5" y2="364.5"/>
<line class="st15" x1="24" y1="324" x2="23" y2="406"/>
<line class="st15" x1="301" y1="398" x2="300" y2="455"/>
</svg>
