<?xml version="1.0" encoding="utf-8"?>
<!-- Generator: Adobe Illustrator 25.0.1, SVG Export Plug-In . SVG Version: 6.00 Build 0)  -->
<svg version="1.1" id="Layer_1" xmlns="http://www.w3.org/2000/svg" xmlns:xlink="http://www.w3.org/1999/xlink" x="0px" y="0px"
	 width="75px" height="100px" viewBox="0 0 212 370.1" style="enable-background:new 0 0 212 370.1;" xml:space="preserve">
<style type="text/css">
	.st0{fill:#5D5D69;}
	.st1{fill:#A2A7B5;}
	.st2{fill:#C1272D;stroke:#F2F2F2;stroke-width:0.6085;stroke-miterlimit:6.0852;}
	.st3{fill:none;stroke:#F2F2F2;stroke-width:0.6085;stroke-miterlimit:6.0852;}
	.st4{fill:#F15A24;stroke:#F2F2F2;stroke-width:0.6085;stroke-miterlimit:6.0852;}
	.st5{fill:#ED1C24;stroke:#F2F2F2;stroke-width:0.6085;stroke-miterlimit:6.0852;}
	.st6{fill:#F7931E;stroke:#F2F2F2;stroke-width:0.6085;stroke-miterlimit:6.0852;}
	.st7{fill:#FBB03B;stroke:#F2F2F2;stroke-width:0.6085;stroke-miterlimit:6.0852;}
	.st8{fill:#00FF00;stroke:#F2F2F2;stroke-width:0.6085;stroke-miterlimit:6.0852;}
	.st9{fill:#FFFF00;stroke:#F2F2F2;stroke-width:0.6085;stroke-miterlimit:6.0852;}
	.st10{fill:#0071BC;stroke:#F2F2F2;stroke-width:0.6085;stroke-miterlimit:6.0852;}
	.st11{fill:#0000FF;stroke:#F2F2F2;stroke-width:0.6085;stroke-miterlimit:6.0852;}
	.st12{fill:#F5F3FA;stroke:#000000;stroke-width:0.6085;stroke-miterlimit:6.0852;}
	.st13{fill:#F5F3FA;stroke:#000000;stroke-width:4;stroke-miterlimit:6.0852;}
	.st14{fill:#FFE4C0;stroke:#F2F2F2;stroke-width:4;stroke-miterlimit:6.0852;}
	.st15{fill:none;stroke:#000000;stroke-width:3.0426;stroke-miterlimit:6.0852;}
	.st16{fill:none;stroke:#000000;stroke-width:0.6085;stroke-miterlimit:6.0852;}
	.st17{fill:#FFE4C0;stroke:#F2F2F2;stroke-width:0.6085;stroke-miterlimit:6.0852;}
	.st18{fill:#CCCCCC;stroke:#F2F2F2;stroke-width:0.6085;stroke-miterlimit:6.0852;}
	.st19{fill:none;stroke:#B3B3B3;stroke-width:1.217;stroke-miterlimit:6.0852;}
	.st20{fill:none;stroke:#000000;stroke-width:4;stroke-miterlimit:6.0852;}
	.st21{fill:none;}
	.st22{font-family:'MyriadPro-Regular';}
	.st23{font-size:7px;}
	.st24{fill:#6A74CF;stroke:#000000;stroke-width:0.6085;stroke-miterlimit:6.0852;}
	.st25{fill:#A62F24;}
</style>
<g>
	<path class="st0" d="M33.2,73.3c0,5,4,9,9,9h123.6c5,0,9-4,9-9V15.6c0-5-4-9-9-9H42.2c-5,0-9,4-9,9V73.3z"/>
</g>
<path class="st1" d="M125.2,41H83.9c-2.5,0-4.5-2-4.5-4.5V4.5c0-2.5,2-4.5,4.5-4.5c6.3,0,12.7,3,19,3c7.4,0,14.9-3,22.3-3
	c0.3,0,1.9,0,3.2,1.3c0.8,0.8,1.3,1.9,1.3,3.2v32.1C129.7,39,127.7,41,125.2,41z"/>
<rect x="53.1" y="201" class="st2" width="12.2" height="80.9"/>
<line class="st3" x1="160.5" y1="25" x2="196.4" y2="25"/>
<rect x="75.6" y="201" class="st4" width="12.2" height="80.9"/>
<rect x="63.5" y="201" class="st5" width="12.2" height="80.9"/>
<rect x="87.8" y="201" class="st6" width="12.2" height="80.9"/>
<rect x="100" y="201" class="st7" width="12.2" height="80.9"/>
<rect x="122.5" y="201" class="st8" width="12.2" height="80.9"/>
<rect x="110.3" y="201" class="st9" width="12.2" height="80.9"/>
<rect x="134.7" y="201" class="st10" width="12.2" height="80.9"/>
<rect x="146.8" y="201" class="st11" width="12.2" height="80.9"/>
<path class="st12" d="M104.9,33.5c22.2,0,69.2-30.7,88.4-18.9c28.4,17.4,20.9,107.4,0,133.3c-27.3,33.8-143,30.7-173.7,0
	C-3.9,124.3-9,31.6,19.6,14.6C38.4,3.5,82.9,33.5,104.9,33.5"/>
<path class="st13" d="M51.3,164.3v36.2c0,0,19.5,12.8,27.4,12.8s27.4-12.8,27.4-12.8v-28.5v-45.6"/>
<path class="st14" d="M51.3,143v21.3"/>
<path class="st13" d="M160.8,143.6V166v34.6c0,0-19.5,12.8-27.4,12.8c-7.9,0-27.4-12.8-27.4-12.8v-28.5v-33.4"/>
<line class="st15" x1="15.4" y1="143" x2="51.3" y2="143"/>
<line class="st15" x1="160.5" y1="143.6" x2="196.4" y2="143.6"/>
<circle class="st2 first-circle" cx="57.7" cy="284.7" r="30"/>
<circle class="st8 second-circle" cx="128.9" cy="284.7" r="6.4"/>
<circle class="st9 first-circle" cx="116.7" cy="284.7" r="6.4"/>
<circle class="st7 second-circle" cx="104.5" cy="284.7" r="6.4"/>
<circle class="st6 first-circle" cx="93.6" cy="284.7" r="40"/>
<circle class="st4 second-circle" cx="82" cy="284.7" r="6.4"/>
<circle class="st5 first-circle" cx="69.9" cy="284.7" r="6.4"/>
<circle class="st11 second-circle" cx="153.2" cy="284.7" r="6.4"/>
<circle class="st10 first-circle" cx="141" cy="284.7" r="30"/>
<line class="st16" x1="87.2" y1="126.8" x2="129.2" y2="126.8"/>
<polygon class="st17 stars-drop" points="27.3,245.8 23,241.7 17.1,242.8 19.8,237.4 16.8,232.2 22.8,233 26.8,228.6 27.9,234.5 33.3,237 
	28,239.9 "/>
<polygon class="st17 stars-drop" points="189.2,228.8 184.9,224.6 179,225.8 181.6,220.4 178.7,215.2 184.6,216 188.7,211.6 189.7,217.5 
	195.2,220 189.9,222.8 "/>
<polygon class="st18 stars-drop" points="19.8,201.5 17.6,199.8 14.8,200 15.8,198.1 14.2,196.1 17.1,196.6 18.9,195.1 19.6,197.3 22.4,198.4 
	19.9,199.3 "/>
<polygon class="st18 stars-drop" points="193.9,248.9 191.7,247.2 188.9,247.4 189.9,245.5 188.3,243.5 191.2,244 193,242.5 193.8,244.7 
	196.5,245.9 194,246.7 "/>
<polygon class="st18 stars-drop" points="38.1,196.6 35.9,194.9 33.1,195.1 34.2,193.2 32.6,191.1 35.5,191.7 37.3,190.2 38,192.4 40.7,193.5 
	38.2,194.4 "/>
<polygon class="st18 stars-drop" points="35.1,271.4 32.8,269.7 30,270 31.1,268 29.5,266 32.4,266.5 34.2,265 34.9,267.3 37.6,268.4 
	35.2,269.2 "/>
<polygon class="st18 stars-drop" points="175.6,278.1 173.4,276.4 170.6,276.6 171.7,274.7 170.1,272.7 173,273.2 174.8,271.7 175.5,273.9 
	178.2,275.1 175.8,275.9 "/>
<polygon class="st18 stars-drop" points="179.9,201.4 177.7,199.7 174.9,200 176,198.1 174.3,196 177.2,196.5 179,195 179.8,197.3 182.5,198.4 
	180,199.3 "/>
<polygon class="st17 stars-drop" points="20.6,295.1 16.3,290.9 10.4,292.1 13.1,286.7 10.1,281.5 16.1,282.3 20.1,277.9 21.2,283.8 
	26.6,286.3 21.3,289.2 "/>
<line class="st19" x1="14.5" y1="209.2" x2="13.9" y2="259.1"/>
<line class="st19" x1="183" y1="254.3" x2="182.4" y2="288.9"/>
<line class="st20" x1="51.3" y1="164.3" x2="51.3" y2="84.5"/>
<line class="st20" x1="160.8" y1="143.6" x2="159.6" y2="84.5"/>
<rect x="51.4" y="49.5" class="st21" width="48.4" height="12"/>
<text transform="matrix(1 0 0 1 51.4275 54.4653)" class="st22 st23">Schwyn Francis </text>
<circle class="st24" cx="129.7" cy="56" r="12.5"/>
<rect x="118.7" y="53.5" class="st21" width="22" height="5"/>
<text transform="matrix(1 0 0 1 118.6583 58.4819)" class="st22 st23">NASA</text>
<line class="st25" x1="118.7" y1="58.5" x2="140.3" y2="49.5"/>
</svg>
