<?xml version="1.0" encoding="utf-8"?>
<!-- Generator: Adobe Illustrator 25.0.1, SVG Export Plug-In . SVG Version: 6.00 Build 0)  -->
<svg version="1.1" id="Layer_1" xmlns="http://www.w3.org/2000/svg" xmlns:xlink="http://www.w3.org/1999/xlink" x="0px" y="0px"
	 width="300px" height="300px" viewBox="0 0 539 718.6" style="enable-background:new 0 0 539 718.6;" xml:space="preserve">
<style type="text/css">
	.st0{fill:#5D5D69;}
	.st1{fill:#A2A7B5;}
	.st2{fill:none;stroke:#F2F2F2;stroke-width:0.1601;stroke-miterlimit:1.6014;}
	.st3{fill:#F15A24;stroke:#F2F2F2;stroke-width:0.1601;stroke-miterlimit:1.6014;}
	.st4{fill:#F7931E;stroke:#F2F2F2;stroke-width:0.1601;stroke-miterlimit:1.6014;}
	.st5{fill:#FF5038;stroke:#F2F2F2;stroke-width:0.1601;stroke-miterlimit:1.6014;}
	.st6{fill:#FF7746;stroke:#F2F2F2;stroke-width:0.1601;stroke-miterlimit:1.6014;}
	.st7{fill:#FDC872;stroke:#F2F2F2;stroke-width:0.1601;stroke-miterlimit:1.6014;}
	.st8{fill:#F2F2F2;stroke:#000000;stroke-miterlimit:1.6014;}
	.st9{fill:#FFE4C0;stroke:#F2F2F2;stroke-width:1.0526;stroke-miterlimit:1.6014;}
	.st10{fill:none;stroke:#000000;stroke-width:0.8007;stroke-miterlimit:1.6014;}
	.st11{fill:#FFE4C0;stroke:#F2F2F2;stroke-width:0.1601;stroke-miterlimit:1.6014;}
	.st12{fill:#CCCCCC;stroke:#F2F2F2;stroke-width:0.1601;stroke-miterlimit:1.6014;}
	.st13{fill:none;stroke:#B3B3B3;stroke-width:0.3203;stroke-miterlimit:1.6014;}
	.st14{fill:none;}
	.st15{font-family:'ArialMT';}
	.st16{font-size:4.939px;}
	.st17{fill:#6A74CF;stroke:#000000;stroke-width:0.1601;stroke-miterlimit:1.6014;}
	.st18{fill:none;stroke:#000000;stroke-width:1.0526;stroke-miterlimit:1.6014;}
	.st19{fill:#F2F2F2;stroke:#000000;stroke-width:1.0526;stroke-miterlimit:1.6014;}
	.st20{fill:#93B4D7;stroke:#F2F2F2;stroke-miterlimit:1.6014;}
</style>
<g>
	<path class="st0" d="M213.6,51.7c0,3.5,2.3,6.4,5.2,6.4h71.9c2.9,0,5.2-2.8,5.2-6.4V11c0-3.5-2.3-6.4-5.2-6.4h-71.9
		c-2.9,0-5.2,2.8-5.2,6.4V51.7z"/>
</g>
<path class="st1" d="M267.1,28.9h-24c-1.5,0-2.6-1.4-2.6-3.2V3.2c0-1.8,1.2-3.2,2.6-3.2c3.7,0,7.4,2.1,11.1,2.1
	c4.3,0,8.7-2.1,13-2.1c0.2,0,1.1,0,1.9,0.9c0.5,0.6,0.8,1.3,0.8,2.3v22.6C269.7,27.5,268.6,28.9,267.1,28.9z"/>
<line class="st2" x1="287.7" y1="17.6" x2="308.5" y2="17.6"/>
<rect x="238.3" y="194.8" class="st3" width="7.1" height="147"/>
<rect x="245.4" y="192.8" class="st4" width="7.1" height="147"/>
<rect x="252.5" y="186.8" class="st5" width="7.1" height="147"/>
<rect x="265.5" y="194.8" class="st6" width="8.6" height="147"/>
<rect x="258.4" y="184.8" class="st7" width="7.1" height="147"/>
<path class="st8" d="M255.3,23.6c12.9,0,40.3-21.7,51.4-13.3c16.5,12.3,12.2,75.8,0,94.1c-15.9,23.8-83.2,21.7-101,0
	c-13.7-16.7-16.7-82.1,0-94.1C216.6,2.5,242.5,23.6,255.3,23.6"/>
<path class="st9" d="M224.1,100.9v15"/>
<line class="st10" x1="203.2" y1="100.9" x2="224.1" y2="100.9"/>
<line class="st10" x1="287.7" y1="101.3" x2="308.5" y2="101.3"/>
<path class="st3" d="M294.6,343.7c0,8.5-3.1,16.3-8.3,22.5l-29.7,75.1l-29.7-75.1c-5.2-6.2-8.2-14-8.2-22.5c0-19.9,17-36.1,38-36.1
	C277.6,307.6,294.6,323.8,294.6,343.7z"/>
<polygon class="st11" points="210.2,173.4 207.7,170.5 204.2,171.3 205.8,167.5 204.1,163.8 207.6,164.4 209.9,161.3 210.5,165.5 
	213.7,167.2 210.6,169.3 "/>
<polygon class="st11" points="304.3,161.4 301.8,158.5 298.4,159.3 299.9,155.5 298.2,151.8 301.7,152.4 304.1,149.3 304.6,153.5 
	307.8,155.2 304.8,157.2 "/>
<polygon class="st12" points="205.8,142.2 204.5,141 202.9,141.1 203.5,139.8 202.5,138.4 204.2,138.7 205.3,137.7 205.7,139.2 
	207.3,140 205.9,140.6 "/>
<polygon class="st12" points="307.1,175.6 305.8,174.4 304.2,174.6 304.8,173.2 303.8,171.8 305.5,172.2 306.6,171.1 307,172.7 
	308.6,173.5 307.1,174.1 "/>
<polygon class="st12" points="216.5,138.7 215.2,137.5 213.5,137.7 214.2,136.3 213.3,134.8 214.9,135.3 216,134.2 216.4,135.8 
	218,136.5 216.5,137.2 "/>
<polygon class="st12" points="214.7,191.5 213.4,190.3 211.7,190.5 212.4,189.1 211.4,187.7 213.1,188 214.2,187 214.6,188.6 
	216.2,189.4 214.8,189.9 "/>
<polygon class="st12" points="296.4,196.2 295.2,195 293.5,195.2 294.2,193.8 293.2,192.4 294.9,192.8 296,191.7 296.4,193.3 
	297.9,194.1 296.6,194.7 "/>
<polygon class="st12" points="298.9,142.1 297.7,140.9 296,141.1 296.6,139.8 295.7,138.3 297.4,138.6 298.4,137.6 298.8,139.2 
	300.4,140 299,140.6 "/>
<polygon class="st11" points="206.3,208.2 203.8,205.2 200.3,206.1 201.9,202.3 200.2,198.6 203.7,199.2 206,196.1 206.6,200.2 
	209.8,202 206.7,204.1 "/>
<line class="st13" x1="202.7" y1="147.6" x2="202.4" y2="182.8"/>
<line class="st13" x1="300.7" y1="179.4" x2="300.4" y2="203.8"/>
<rect x="224.2" y="34.9" class="st14" width="28.2" height="8.5"/>
<text transform="matrix(0.8245 0 0 1 224.1988 38.4287)" class="st15 st16">Schwyn Francis </text>
<ellipse class="st17" cx="269.7" cy="39.5" rx="7.3" ry="8.8"/>
<rect x="263.3" y="37.7" class="st14" width="12.8" height="3.5"/>
<text transform="matrix(0.8245 0 0 1 263.3082 41.2627)" class="st15 st16">NASA</text>
<line class="st14" x1="263.3" y1="41.3" x2="275.9" y2="34.9"/>
<polygon class="st11" points="175.1,144.8 172.6,141.8 169.2,142.7 170.8,138.9 169,135.2 172.5,135.8 174.9,132.6 175.5,136.8 
	178.6,138.6 175.6,140.5 "/>
<polygon class="st11" points="398.1,130.2 395.6,127.3 392.2,128.1 393.7,124.3 392,120.7 395.4,121.2 397.8,118.1 398.4,122.3 
	401.6,124 398.5,126 "/>
<polygon class="st11" points="158.3,202.4 155.8,199.5 152.3,200.3 153.9,196.5 152.2,192.8 155.7,193.4 158,190.3 158.6,194.5 
	161.8,196.2 158.7,198.2 "/>
<polygon class="st11" points="369,208.5 366.5,205.5 363,206.4 364.6,202.6 362.9,198.9 366.4,199.5 368.7,196.4 369.3,200.5 
	372.5,202.3 369.4,204.3 "/>
<polygon class="st11" points="364.2,159.7 361.7,156.8 358.3,157.6 359.8,153.8 358.1,150.1 361.5,150.7 363.9,147.6 364.5,151.8 
	367.7,153.5 364.6,155.6 "/>
<polygon class="st11" points="180,288.8 177.5,285.9 174,286.7 175.6,282.9 173.9,279.2 177.3,279.8 179.7,276.7 180.3,280.9 
	183.5,282.7 180.4,284.6 "/>
<polygon class="st11" points="313.9,268.3 311.4,265.4 308,266.1 309.5,262.3 307.8,258.7 311.3,259.3 313.7,256.1 314.2,260.4 
	317.4,262.1 314.4,264.1 "/>
<polygon class="st11" points="355.8,288.8 353.3,285.9 349.9,286.7 351.5,282.9 349.7,279.2 353.2,279.8 355.5,276.7 356.2,280.9 
	359.3,282.7 356.2,284.6 "/>
<polygon class="st11" points="330.5,202.4 328,199.5 324.5,200.3 326,196.5 324.4,192.8 327.8,193.4 330.2,190.3 330.8,194.5 
	334,196.2 330.9,198.2 "/>
<polygon class="st11" points="139.1,114.5 136.6,111.6 133.1,112.4 134.7,108.6 133,104.9 136.4,105.5 138.8,102.4 139.4,106.5 
	142.6,108.3 139.5,110.3 "/>
<polygon class="st11" points="122.8,43.8 120.3,40.9 116.9,41.7 118.4,37.9 116.7,34.2 120.2,34.8 122.5,31.7 123.1,35.8 
	126.3,37.6 123.2,39.6 "/>
<line class="st13" x1="378.8" y1="237.7" x2="378.4" y2="262.2"/>
<line class="st13" x1="269.9" y1="256.1" x2="269.5" y2="301.1"/>
<line class="st13" x1="152.3" y1="250" x2="152" y2="295"/>
<line class="st13" x1="350.4" y1="132.5" x2="350.1" y2="157"/>
<line class="st13" x1="157.2" y1="56" x2="156.8" y2="80.5"/>
<polygon class="st12" points="402,198.6 400.7,197.4 399.1,197.6 399.7,196.2 398.8,194.8 400.5,195.2 401.6,194.1 402,195.7 
	403.5,196.5 402.1,197.1 "/>
<polygon class="st12" points="140.4,240 139.1,238.8 137.5,239 138.1,237.6 137.2,236.2 138.9,236.5 139.9,235.4 140.3,237.1 
	141.9,237.8 140.5,238.5 "/>
<polygon class="st12" points="138,163.6 136.7,162.4 135.1,162.6 135.7,161.2 134.8,159.7 136.5,160.1 137.5,159 137.9,160.7 
	139.5,161.4 138.1,162 "/>
<polygon class="st12" points="379.3,61.9 378,60.7 376.4,60.8 377,59.5 376.1,58.1 377.8,58.4 378.8,57.4 379.2,58.9 380.8,59.7 
	379.4,60.3 "/>
<polygon class="st12" points="330,233.4 328.7,232.2 327.1,232.3 327.7,231 326.8,229.5 328.5,229.9 329.5,228.9 329.9,230.4 
	331.5,231.2 330.1,231.8 "/>
<path class="st18" d="M224.3,199.8L224.3,199.8l0-0.8C224.2,199.3,224.3,199.5,224.3,199.8z"/>
<path class="st18" d="M256.6,199c0,0.3,0,0.5,0,0.8h-1.1c-0.1-0.6-0.1-1.1-0.1-1.7v-5.2c0.2,0.4,0.3,0.8,0.5,1.3
	C256.3,195.7,256.6,197.3,256.6,199z"/>
<path class="st19" d="M288.8,72.2v130.8h-0.8c-0.9,7.8-8,13.9-16.7,13.9c-7.6,0-14-4.6-16.1-11c0.3-0.9,0.4-1.9,0.5-2.9
	c0-0.2,0-0.5,0-0.7c0-1.6-0.3-3.1-0.7-4.5c-0.1-0.4-0.3-0.8-0.5-1.2v4.8c0,0.5,0,1.1,0.1,1.6c0.1,1,0.3,2,0.6,2.9
	c-1.7,6.5-8.1,11.3-15.7,11.3c-8.7,0-15.8-6.3-16.2-14.2c0-0.2,0-0.5,0-0.7V72.2"/>
<polyline class="st18" points="255.4,127.5 255.4,127.8 255.4,200.7 "/>
<line class="st18" x1="239.4" y1="125.5" x2="276.8" y2="125.2"/>
<polygon class="st11" points="326.9,425.4 324.4,422.4 321,423.3 322.6,419.5 320.8,415.8 324.3,416.4 326.6,413.3 327.2,417.4 
	330.4,419.2 327.3,421.2 "/>
<polygon class="st11" points="307.7,337.5 305.2,334.5 301.8,335.4 303.3,331.6 301.6,327.9 305,328.5 307.4,325.4 308,329.5 
	311.2,331.3 308.1,333.3 "/>
<line class="st13" x1="321" y1="473" x2="320.6" y2="518"/>
<polygon class="st12" points="309,463 307.7,461.7 306.1,462 306.7,460.6 305.8,459.1 307.5,459.5 308.5,458.4 308.9,460.1 
	310.5,460.8 309.1,461.5 "/>
<polygon class="st12" points="306.7,386.5 305.3,385.3 303.7,385.5 304.4,384.2 303.4,382.7 305.1,383.1 306.2,382 306.6,383.6 
	308.1,384.4 306.7,385 "/>
<polygon class="st11" points="481.3,521.7 478.8,518.8 475.4,519.6 476.9,515.8 475.2,512.1 478.7,512.7 481,509.6 481.6,513.7 
	484.8,515.5 481.7,517.5 "/>
<polygon class="st11" points="462.1,433.8 459.6,430.8 456.2,431.7 457.7,427.9 456,424.2 459.4,424.8 461.8,421.7 462.4,425.8 
	465.6,427.6 462.5,429.6 "/>
<line class="st13" x1="475.4" y1="569.3" x2="475" y2="614.3"/>
<polygon class="st12" points="463.4,559.3 462.1,558.1 460.5,558.3 461.1,556.9 460.2,555.4 461.9,555.8 462.9,554.7 463.3,556.4 
	464.9,557.1 463.5,557.8 "/>
<polygon class="st12" points="461,482.8 459.7,481.6 458.1,481.9 458.7,480.5 457.8,479 459.5,479.4 460.5,478.3 460.9,480 
	462.5,480.7 461.1,481.3 "/>
<polygon class="st11" points="98.3,550.8 95.8,547.8 92.4,548.7 93.9,544.9 92.2,541.2 95.7,541.8 98,538.6 98.6,542.8 101.8,544.6 
	98.7,546.6 "/>
<polygon class="st11" points="79.1,462.9 76.6,459.9 73.2,460.8 74.7,456.9 73,453.3 76.4,453.8 78.8,450.7 79.4,454.9 82.6,456.7 
	79.5,458.6 "/>
<line class="st13" x1="92.4" y1="598.3" x2="92" y2="643.4"/>
<polygon class="st12" points="80.4,588.4 79.1,587.1 77.5,587.3 78.1,586 77.2,584.5 78.9,584.9 79.9,583.8 80.3,585.4 81.9,586.2 
	80.5,586.8 "/>
<polygon class="st12" points="78,511.9 76.7,510.7 75.1,510.9 75.7,509.6 74.8,508.1 76.5,508.5 77.5,507.4 77.9,509 79.5,509.8 
	78.1,510.4 "/>
<polygon class="st11" points="201,573 197.9,570.1 193.5,570.9 195.5,567.1 193.3,563.4 197.7,564 200.6,560.9 201.4,565 
	205.4,566.8 201.5,568.8 "/>
<polygon class="st11" points="94,319.8 90.9,316.8 86.5,317.7 88.4,313.8 86.3,310.2 90.6,310.7 93.6,307.6 94.4,311.8 98.4,313.6 
	94.5,315.5 "/>
<line class="st13" x1="193.5" y1="620.6" x2="193.1" y2="665.6"/>
<polygon class="st12" points="178.4,610.6 176.8,609.4 174.7,609.6 175.5,608.2 174.3,606.7 176.5,607.1 177.8,606 178.3,607.7 
	180.3,608.4 178.5,609.1 "/>
<polygon class="st12" points="175.4,534.1 173.7,532.9 171.7,533.2 172.5,531.8 171.3,530.3 173.5,530.7 174.8,529.6 175.3,531.2 
	177.3,532 175.5,532.6 "/>
<polygon class="st11" points="476.5,298.7 474,295.8 470.6,296.6 472.1,292.8 470.4,289.1 473.9,289.7 476.2,286.6 476.8,290.8 
	480,292.5 476.9,294.5 "/>
<polygon class="st11" points="457.3,210.8 454.8,207.9 451.4,208.7 452.9,204.9 451.2,201.2 454.6,201.8 457,198.7 457.6,202.9 
	460.8,204.6 457.7,206.6 "/>
<line class="st13" x1="470.6" y1="346.3" x2="470.2" y2="391.3"/>
<polygon class="st12" points="458.6,336.3 457.3,335.1 455.7,335.3 456.3,333.9 455.4,332.5 457.1,332.8 458.1,331.8 458.5,333.4 
	460.1,334.2 458.7,334.8 "/>
<polygon class="st12" points="456.2,259.9 454.9,258.7 453.3,258.9 453.9,257.5 453,256.1 454.7,256.4 455.7,255.3 456.1,257 
	457.7,257.7 456.3,258.3 "/>
<polygon class="st11" points="68.4,171.1 65.9,168.1 62.5,169 64,165.2 62.3,161.5 65.8,162.1 68.1,159 68.7,163.1 71.9,164.9 
	68.8,166.9 "/>
<polygon class="st11" points="49.2,83.2 46.7,80.2 43.3,81.1 44.8,77.3 43.1,73.6 46.5,74.2 48.9,71.1 49.5,75.2 52.7,77 49.6,79 
	"/>
<line class="st13" x1="62.5" y1="218.7" x2="62.1" y2="263.7"/>
<polygon class="st12" points="50.5,208.7 49.2,207.4 47.6,207.6 48.2,206.3 47.3,204.8 49,205.2 50,204.1 50.4,205.7 52,206.5 
	50.6,207.2 "/>
<polygon class="st12" points="48.2,132.2 46.8,131 45.2,131.2 45.8,129.9 44.9,128.4 46.6,128.8 47.6,127.7 48,129.3 49.6,130.1 
	48.2,130.7 "/>
<polygon class="st11" points="397.8,582.9 395.3,579.9 391.8,580.8 393.4,577 391.7,573.3 395.2,573.9 397.5,570.8 398.1,574.9 
	401.3,576.7 398.2,578.7 "/>
<polygon class="st11" points="378.6,495 376.1,492 372.6,492.9 374.2,489.1 372.5,485.4 375.9,486 378.3,482.8 378.9,487 
	382.1,488.8 379,490.7 "/>
<line class="st13" x1="391.8" y1="630.5" x2="391.5" y2="675.5"/>
<polygon class="st12" points="379.9,620.5 378.6,619.2 376.9,619.4 377.6,618.1 376.7,616.6 378.3,617 379.4,615.9 379.8,617.5 
	381.4,618.3 380,618.9 "/>
<polygon class="st12" points="377.5,544 376.2,542.8 374.6,543 375.2,541.7 374.3,540.2 376,540.6 377,539.5 377.4,541.1 379,541.9 
	377.6,542.5 "/>
<polygon class="st11" points="288.2,614.4 285.7,611.4 282.3,612.2 283.8,608.4 282.1,604.8 285.6,605.3 287.9,602.2 288.5,606.4 
	291.7,608.2 288.6,610.1 "/>
<polygon class="st11" points="269,526.4 266.5,523.5 263.1,524.3 264.6,520.5 262.9,516.9 266.3,517.4 268.7,514.3 269.3,518.5 
	272.5,520.2 269.4,522.2 "/>
<line class="st13" x1="282.3" y1="661.9" x2="281.9" y2="706.9"/>
<polygon class="st12" points="270.3,652 269,650.7 267.4,650.9 268,649.6 267.1,648.1 268.8,648.4 269.8,647.4 270.2,649 
	271.8,649.8 270.4,650.4 "/>
<polygon class="st12" points="267.9,575.5 266.6,574.3 265,574.5 265.6,573.2 264.7,571.7 266.4,572 267.4,571 267.8,572.6 
	269.4,573.4 268,573.9 "/>
<polygon class="st11" points="501.1,134 499,131 496.1,131.9 497.4,128.1 496,124.4 498.9,125 500.8,121.9 501.3,126 504,127.8 
	501.4,129.8 "/>
<polygon class="st11" points="485.1,46.1 483,43.1 480.1,44 481.4,40.1 480,36.5 482.8,37 484.8,33.9 485.3,38.1 488,39.9 
	485.4,41.8 "/>
<line class="st13" x1="496.1" y1="181.5" x2="495.8" y2="226.6"/>
<polygon class="st12" points="486.1,171.6 485.1,170.3 483.7,170.5 484.2,169.2 483.5,167.7 484.9,168.1 485.8,167 486.1,168.6 
	487.4,169.4 486.2,170 "/>
<polygon class="st12" points="484.2,95.1 483.1,93.9 481.7,94.1 482.3,92.8 481.5,91.3 482.9,91.7 483.8,90.6 484.1,92.2 485.4,93 
	484.2,93.6 "/>
<rect x="252.4" y="22.9" class="st20" width="4.8" height="66.3"/>
</svg>
